<?xml version="1.0" encoding="utf-8" standalone="no"?>
<!DOCTYPE svg PUBLIC "-//W3C//DTD SVG 1.1//EN"
  "http://www.w3.org/Graphics/SVG/1.1/DTD/svg11.dtd">
<svg xmlns:xlink="http://www.w3.org/1999/xlink" width="576pt" height="360pt" viewBox="0 0 576 360" xmlns="http://www.w3.org/2000/svg" version="1.1">
 <metadata>
  <rdf:RDF xmlns:dc="http://purl.org/dc/elements/1.1/" xmlns:cc="http://creativecommons.org/ns#" xmlns:rdf="http://www.w3.org/1999/02/22-rdf-syntax-ns#">
   <cc:Work>
    <dc:type rdf:resource="http://purl.org/dc/dcmitype/StillImage"/>
    <dc:date>2022-11-02T22:16:09.477276</dc:date>
    <dc:format>image/svg+xml</dc:format>
    <dc:creator>
     <cc:Agent>
      <dc:title>Matplotlib v3.5.1, https://matplotlib.org/</dc:title>
     </cc:Agent>
    </dc:creator>
   </cc:Work>
  </rdf:RDF>
 </metadata>
 <defs>
  <style type="text/css">*{stroke-linejoin: round; stroke-linecap: butt}</style>
 </defs>
 <g id="figure_1">
  <g id="patch_1">
   <path d="M 0 360 
L 576 360 
L 576 0 
L 0 0 
L 0 360 
z
" style="fill: none"/>
  </g>
  <g id="axes_1">
   <g id="patch_2">
    <path d="M 72 315 
L 518.4 315 
L 518.4 43.2 
L 72 43.2 
z
" style="fill: #ffffff"/>
   </g>
   <g id="matplotlib.axis_1">
    <g id="xtick_1">
     <g id="line2d_1">
      <path d="M 72 315 
L 72 43.2 
" clip-path="url(#pf39d060690)" style="fill: none; stroke: #b0b0b0; stroke-width: 0.8; stroke-linecap: square"/>
     </g>
     <g id="line2d_2">
      <defs>
       <path id="md3b45184a4" d="M 0 0 
L 0 3.5 
" style="stroke: #000000; stroke-width: 0.8"/>
      </defs>
      <g>
       <use xlink:href="#md3b45184a4" x="72" y="315" style="stroke: #000000; stroke-width: 0.8"/>
      </g>
     </g>
     <g id="text_1">
      <!-- 0 -->
      <g transform="translate(68.81875 329.598437)scale(0.1 -0.1)">
       <defs>
        <path id="DejaVuSans-30" d="M 2034 4250 
Q 1547 4250 1301 3770 
Q 1056 3291 1056 2328 
Q 1056 1369 1301 889 
Q 1547 409 2034 409 
Q 2525 409 2770 889 
Q 3016 1369 3016 2328 
Q 3016 3291 2770 3770 
Q 2525 4250 2034 4250 
z
M 2034 4750 
Q 2819 4750 3233 4129 
Q 3647 3509 3647 2328 
Q 3647 1150 3233 529 
Q 2819 -91 2034 -91 
Q 1250 -91 836 529 
Q 422 1150 422 2328 
Q 422 3509 836 4129 
Q 1250 4750 2034 4750 
z
" transform="scale(0.015625)"/>
       </defs>
       <use xlink:href="#DejaVuSans-30"/>
      </g>
     </g>
    </g>
    <g id="xtick_2">
     <g id="line2d_3">
      <path d="M 161.28 315 
L 161.28 43.2 
" clip-path="url(#pf39d060690)" style="fill: none; stroke: #b0b0b0; stroke-width: 0.8; stroke-linecap: square"/>
     </g>
     <g id="line2d_4">
      <g>
       <use xlink:href="#md3b45184a4" x="161.28" y="315" style="stroke: #000000; stroke-width: 0.8"/>
      </g>
     </g>
     <g id="text_2">
      <!-- 20 -->
      <g transform="translate(154.9175 329.598437)scale(0.1 -0.1)">
       <defs>
        <path id="DejaVuSans-32" d="M 1228 531 
L 3431 531 
L 3431 0 
L 469 0 
L 469 531 
Q 828 903 1448 1529 
Q 2069 2156 2228 2338 
Q 2531 2678 2651 2914 
Q 2772 3150 2772 3378 
Q 2772 3750 2511 3984 
Q 2250 4219 1831 4219 
Q 1534 4219 1204 4116 
Q 875 4013 500 3803 
L 500 4441 
Q 881 4594 1212 4672 
Q 1544 4750 1819 4750 
Q 2544 4750 2975 4387 
Q 3406 4025 3406 3419 
Q 3406 3131 3298 2873 
Q 3191 2616 2906 2266 
Q 2828 2175 2409 1742 
Q 1991 1309 1228 531 
z
" transform="scale(0.015625)"/>
       </defs>
       <use xlink:href="#DejaVuSans-32"/>
       <use xlink:href="#DejaVuSans-30" x="63.623047"/>
      </g>
     </g>
    </g>
    <g id="xtick_3">
     <g id="line2d_5">
      <path d="M 250.56 315 
L 250.56 43.2 
" clip-path="url(#pf39d060690)" style="fill: none; stroke: #b0b0b0; stroke-width: 0.8; stroke-linecap: square"/>
     </g>
     <g id="line2d_6">
      <g>
       <use xlink:href="#md3b45184a4" x="250.56" y="315" style="stroke: #000000; stroke-width: 0.8"/>
      </g>
     </g>
     <g id="text_3">
      <!-- 40 -->
      <g transform="translate(244.1975 329.598437)scale(0.1 -0.1)">
       <defs>
        <path id="DejaVuSans-34" d="M 2419 4116 
L 825 1625 
L 2419 1625 
L 2419 4116 
z
M 2253 4666 
L 3047 4666 
L 3047 1625 
L 3713 1625 
L 3713 1100 
L 3047 1100 
L 3047 0 
L 2419 0 
L 2419 1100 
L 313 1100 
L 313 1709 
L 2253 4666 
z
" transform="scale(0.015625)"/>
       </defs>
       <use xlink:href="#DejaVuSans-34"/>
       <use xlink:href="#DejaVuSans-30" x="63.623047"/>
      </g>
     </g>
    </g>
    <g id="xtick_4">
     <g id="line2d_7">
      <path d="M 339.84 315 
L 339.84 43.2 
" clip-path="url(#pf39d060690)" style="fill: none; stroke: #b0b0b0; stroke-width: 0.8; stroke-linecap: square"/>
     </g>
     <g id="line2d_8">
      <g>
       <use xlink:href="#md3b45184a4" x="339.84" y="315" style="stroke: #000000; stroke-width: 0.8"/>
      </g>
     </g>
     <g id="text_4">
      <!-- 60 -->
      <g transform="translate(333.4775 329.598437)scale(0.1 -0.1)">
       <defs>
        <path id="DejaVuSans-36" d="M 2113 2584 
Q 1688 2584 1439 2293 
Q 1191 2003 1191 1497 
Q 1191 994 1439 701 
Q 1688 409 2113 409 
Q 2538 409 2786 701 
Q 3034 994 3034 1497 
Q 3034 2003 2786 2293 
Q 2538 2584 2113 2584 
z
M 3366 4563 
L 3366 3988 
Q 3128 4100 2886 4159 
Q 2644 4219 2406 4219 
Q 1781 4219 1451 3797 
Q 1122 3375 1075 2522 
Q 1259 2794 1537 2939 
Q 1816 3084 2150 3084 
Q 2853 3084 3261 2657 
Q 3669 2231 3669 1497 
Q 3669 778 3244 343 
Q 2819 -91 2113 -91 
Q 1303 -91 875 529 
Q 447 1150 447 2328 
Q 447 3434 972 4092 
Q 1497 4750 2381 4750 
Q 2619 4750 2861 4703 
Q 3103 4656 3366 4563 
z
" transform="scale(0.015625)"/>
       </defs>
       <use xlink:href="#DejaVuSans-36"/>
       <use xlink:href="#DejaVuSans-30" x="63.623047"/>
      </g>
     </g>
    </g>
    <g id="xtick_5">
     <g id="line2d_9">
      <path d="M 429.12 315 
L 429.12 43.2 
" clip-path="url(#pf39d060690)" style="fill: none; stroke: #b0b0b0; stroke-width: 0.8; stroke-linecap: square"/>
     </g>
     <g id="line2d_10">
      <g>
       <use xlink:href="#md3b45184a4" x="429.12" y="315" style="stroke: #000000; stroke-width: 0.8"/>
      </g>
     </g>
     <g id="text_5">
      <!-- 80 -->
      <g transform="translate(422.7575 329.598437)scale(0.1 -0.1)">
       <defs>
        <path id="DejaVuSans-38" d="M 2034 2216 
Q 1584 2216 1326 1975 
Q 1069 1734 1069 1313 
Q 1069 891 1326 650 
Q 1584 409 2034 409 
Q 2484 409 2743 651 
Q 3003 894 3003 1313 
Q 3003 1734 2745 1975 
Q 2488 2216 2034 2216 
z
M 1403 2484 
Q 997 2584 770 2862 
Q 544 3141 544 3541 
Q 544 4100 942 4425 
Q 1341 4750 2034 4750 
Q 2731 4750 3128 4425 
Q 3525 4100 3525 3541 
Q 3525 3141 3298 2862 
Q 3072 2584 2669 2484 
Q 3125 2378 3379 2068 
Q 3634 1759 3634 1313 
Q 3634 634 3220 271 
Q 2806 -91 2034 -91 
Q 1263 -91 848 271 
Q 434 634 434 1313 
Q 434 1759 690 2068 
Q 947 2378 1403 2484 
z
M 1172 3481 
Q 1172 3119 1398 2916 
Q 1625 2713 2034 2713 
Q 2441 2713 2670 2916 
Q 2900 3119 2900 3481 
Q 2900 3844 2670 4047 
Q 2441 4250 2034 4250 
Q 1625 4250 1398 4047 
Q 1172 3844 1172 3481 
z
" transform="scale(0.015625)"/>
       </defs>
       <use xlink:href="#DejaVuSans-38"/>
       <use xlink:href="#DejaVuSans-30" x="63.623047"/>
      </g>
     </g>
    </g>
    <g id="xtick_6">
     <g id="line2d_11">
      <path d="M 518.4 315 
L 518.4 43.2 
" clip-path="url(#pf39d060690)" style="fill: none; stroke: #b0b0b0; stroke-width: 0.8; stroke-linecap: square"/>
     </g>
     <g id="line2d_12">
      <g>
       <use xlink:href="#md3b45184a4" x="518.4" y="315" style="stroke: #000000; stroke-width: 0.8"/>
      </g>
     </g>
     <g id="text_6">
      <!-- 100 -->
      <g transform="translate(508.85625 329.598437)scale(0.1 -0.1)">
       <defs>
        <path id="DejaVuSans-31" d="M 794 531 
L 1825 531 
L 1825 4091 
L 703 3866 
L 703 4441 
L 1819 4666 
L 2450 4666 
L 2450 531 
L 3481 531 
L 3481 0 
L 794 0 
L 794 531 
z
" transform="scale(0.015625)"/>
       </defs>
       <use xlink:href="#DejaVuSans-31"/>
       <use xlink:href="#DejaVuSans-30" x="63.623047"/>
       <use xlink:href="#DejaVuSans-30" x="127.246094"/>
      </g>
     </g>
    </g>
    <g id="text_7">
     <!-- x axis -->
     <g transform="translate(280.634375 343.276563)scale(0.1 -0.1)">
      <defs>
       <path id="DejaVuSans-78" d="M 3513 3500 
L 2247 1797 
L 3578 0 
L 2900 0 
L 1881 1375 
L 863 0 
L 184 0 
L 1544 1831 
L 300 3500 
L 978 3500 
L 1906 2253 
L 2834 3500 
L 3513 3500 
z
" transform="scale(0.015625)"/>
       <path id="DejaVuSans-20" transform="scale(0.015625)"/>
       <path id="DejaVuSans-61" d="M 2194 1759 
Q 1497 1759 1228 1600 
Q 959 1441 959 1056 
Q 959 750 1161 570 
Q 1363 391 1709 391 
Q 2188 391 2477 730 
Q 2766 1069 2766 1631 
L 2766 1759 
L 2194 1759 
z
M 3341 1997 
L 3341 0 
L 2766 0 
L 2766 531 
Q 2569 213 2275 61 
Q 1981 -91 1556 -91 
Q 1019 -91 701 211 
Q 384 513 384 1019 
Q 384 1609 779 1909 
Q 1175 2209 1959 2209 
L 2766 2209 
L 2766 2266 
Q 2766 2663 2505 2880 
Q 2244 3097 1772 3097 
Q 1472 3097 1187 3025 
Q 903 2953 641 2809 
L 641 3341 
Q 956 3463 1253 3523 
Q 1550 3584 1831 3584 
Q 2591 3584 2966 3190 
Q 3341 2797 3341 1997 
z
" transform="scale(0.015625)"/>
       <path id="DejaVuSans-69" d="M 603 3500 
L 1178 3500 
L 1178 0 
L 603 0 
L 603 3500 
z
M 603 4863 
L 1178 4863 
L 1178 4134 
L 603 4134 
L 603 4863 
z
" transform="scale(0.015625)"/>
       <path id="DejaVuSans-73" d="M 2834 3397 
L 2834 2853 
Q 2591 2978 2328 3040 
Q 2066 3103 1784 3103 
Q 1356 3103 1142 2972 
Q 928 2841 928 2578 
Q 928 2378 1081 2264 
Q 1234 2150 1697 2047 
L 1894 2003 
Q 2506 1872 2764 1633 
Q 3022 1394 3022 966 
Q 3022 478 2636 193 
Q 2250 -91 1575 -91 
Q 1294 -91 989 -36 
Q 684 19 347 128 
L 347 722 
Q 666 556 975 473 
Q 1284 391 1588 391 
Q 1994 391 2212 530 
Q 2431 669 2431 922 
Q 2431 1156 2273 1281 
Q 2116 1406 1581 1522 
L 1381 1569 
Q 847 1681 609 1914 
Q 372 2147 372 2553 
Q 372 3047 722 3315 
Q 1072 3584 1716 3584 
Q 2034 3584 2315 3537 
Q 2597 3491 2834 3397 
z
" transform="scale(0.015625)"/>
      </defs>
      <use xlink:href="#DejaVuSans-78"/>
      <use xlink:href="#DejaVuSans-20" x="59.179688"/>
      <use xlink:href="#DejaVuSans-61" x="90.966797"/>
      <use xlink:href="#DejaVuSans-78" x="152.246094"/>
      <use xlink:href="#DejaVuSans-69" x="211.425781"/>
      <use xlink:href="#DejaVuSans-73" x="239.208984"/>
     </g>
    </g>
   </g>
   <g id="matplotlib.axis_2">
    <g id="ytick_1">
     <g id="line2d_13">
      <path d="M 72 315 
L 518.4 315 
" clip-path="url(#pf39d060690)" style="fill: none; stroke: #b0b0b0; stroke-width: 0.8; stroke-linecap: square"/>
     </g>
     <g id="line2d_14">
      <defs>
       <path id="m90975ee201" d="M 0 0 
L -3.5 0 
" style="stroke: #000000; stroke-width: 0.8"/>
      </defs>
      <g>
       <use xlink:href="#m90975ee201" x="72" y="315" style="stroke: #000000; stroke-width: 0.8"/>
      </g>
     </g>
     <g id="text_8">
      <!-- 0 -->
      <g transform="translate(58.6375 318.799219)scale(0.1 -0.1)">
       <use xlink:href="#DejaVuSans-30"/>
      </g>
     </g>
    </g>
    <g id="ytick_2">
     <g id="line2d_15">
      <path d="M 72 261.705882 
L 518.4 261.705882 
" clip-path="url(#pf39d060690)" style="fill: none; stroke: #b0b0b0; stroke-width: 0.8; stroke-linecap: square"/>
     </g>
     <g id="line2d_16">
      <g>
       <use xlink:href="#m90975ee201" x="72" y="261.705882" style="stroke: #000000; stroke-width: 0.8"/>
      </g>
     </g>
     <g id="text_9">
      <!-- 50 -->
      <g transform="translate(52.275 265.505101)scale(0.1 -0.1)">
       <defs>
        <path id="DejaVuSans-35" d="M 691 4666 
L 3169 4666 
L 3169 4134 
L 1269 4134 
L 1269 2991 
Q 1406 3038 1543 3061 
Q 1681 3084 1819 3084 
Q 2600 3084 3056 2656 
Q 3513 2228 3513 1497 
Q 3513 744 3044 326 
Q 2575 -91 1722 -91 
Q 1428 -91 1123 -41 
Q 819 9 494 109 
L 494 744 
Q 775 591 1075 516 
Q 1375 441 1709 441 
Q 2250 441 2565 725 
Q 2881 1009 2881 1497 
Q 2881 1984 2565 2268 
Q 2250 2553 1709 2553 
Q 1456 2553 1204 2497 
Q 953 2441 691 2322 
L 691 4666 
z
" transform="scale(0.015625)"/>
       </defs>
       <use xlink:href="#DejaVuSans-35"/>
       <use xlink:href="#DejaVuSans-30" x="63.623047"/>
      </g>
     </g>
    </g>
    <g id="ytick_3">
     <g id="line2d_17">
      <path d="M 72 208.411765 
L 518.4 208.411765 
" clip-path="url(#pf39d060690)" style="fill: none; stroke: #b0b0b0; stroke-width: 0.8; stroke-linecap: square"/>
     </g>
     <g id="line2d_18">
      <g>
       <use xlink:href="#m90975ee201" x="72" y="208.411765" style="stroke: #000000; stroke-width: 0.8"/>
      </g>
     </g>
     <g id="text_10">
      <!-- 100 -->
      <g transform="translate(45.9125 212.210983)scale(0.1 -0.1)">
       <use xlink:href="#DejaVuSans-31"/>
       <use xlink:href="#DejaVuSans-30" x="63.623047"/>
       <use xlink:href="#DejaVuSans-30" x="127.246094"/>
      </g>
     </g>
    </g>
    <g id="ytick_4">
     <g id="line2d_19">
      <path d="M 72 155.117647 
L 518.4 155.117647 
" clip-path="url(#pf39d060690)" style="fill: none; stroke: #b0b0b0; stroke-width: 0.8; stroke-linecap: square"/>
     </g>
     <g id="line2d_20">
      <g>
       <use xlink:href="#m90975ee201" x="72" y="155.117647" style="stroke: #000000; stroke-width: 0.8"/>
      </g>
     </g>
     <g id="text_11">
      <!-- 150 -->
      <g transform="translate(45.9125 158.916866)scale(0.1 -0.1)">
       <use xlink:href="#DejaVuSans-31"/>
       <use xlink:href="#DejaVuSans-35" x="63.623047"/>
       <use xlink:href="#DejaVuSans-30" x="127.246094"/>
      </g>
     </g>
    </g>
    <g id="ytick_5">
     <g id="line2d_21">
      <path d="M 72 101.823529 
L 518.4 101.823529 
" clip-path="url(#pf39d060690)" style="fill: none; stroke: #b0b0b0; stroke-width: 0.8; stroke-linecap: square"/>
     </g>
     <g id="line2d_22">
      <g>
       <use xlink:href="#m90975ee201" x="72" y="101.823529" style="stroke: #000000; stroke-width: 0.8"/>
      </g>
     </g>
     <g id="text_12">
      <!-- 200 -->
      <g transform="translate(45.9125 105.622748)scale(0.1 -0.1)">
       <use xlink:href="#DejaVuSans-32"/>
       <use xlink:href="#DejaVuSans-30" x="63.623047"/>
       <use xlink:href="#DejaVuSans-30" x="127.246094"/>
      </g>
     </g>
    </g>
    <g id="ytick_6">
     <g id="line2d_23">
      <path d="M 72 48.529412 
L 518.4 48.529412 
" clip-path="url(#pf39d060690)" style="fill: none; stroke: #b0b0b0; stroke-width: 0.8; stroke-linecap: square"/>
     </g>
     <g id="line2d_24">
      <g>
       <use xlink:href="#m90975ee201" x="72" y="48.529412" style="stroke: #000000; stroke-width: 0.8"/>
      </g>
     </g>
     <g id="text_13">
      <!-- 250 -->
      <g transform="translate(45.9125 52.328631)scale(0.1 -0.1)">
       <use xlink:href="#DejaVuSans-32"/>
       <use xlink:href="#DejaVuSans-35" x="63.623047"/>
       <use xlink:href="#DejaVuSans-30" x="127.246094"/>
      </g>
     </g>
    </g>
    <g id="text_14">
     <!-- y axis -->
     <g transform="translate(39.832812 193.665625)rotate(-90)scale(0.1 -0.1)">
      <defs>
       <path id="DejaVuSans-79" d="M 2059 -325 
Q 1816 -950 1584 -1140 
Q 1353 -1331 966 -1331 
L 506 -1331 
L 506 -850 
L 844 -850 
Q 1081 -850 1212 -737 
Q 1344 -625 1503 -206 
L 1606 56 
L 191 3500 
L 800 3500 
L 1894 763 
L 2988 3500 
L 3597 3500 
L 2059 -325 
z
" transform="scale(0.015625)"/>
      </defs>
      <use xlink:href="#DejaVuSans-79"/>
      <use xlink:href="#DejaVuSans-20" x="59.179688"/>
      <use xlink:href="#DejaVuSans-61" x="90.966797"/>
      <use xlink:href="#DejaVuSans-78" x="152.246094"/>
      <use xlink:href="#DejaVuSans-69" x="211.425781"/>
      <use xlink:href="#DejaVuSans-73" x="239.208984"/>
     </g>
    </g>
   </g>
   <g id="line2d_25">
    <path d="M 72 51.727059 
L 76.464 50.661176 
L 80.928 50.661176 
L 85.392 50.661176 
L 89.856 50.661176 
L 94.32 49.595294 
L 98.784 48.529412 
L 103.248 47.463529 
L 107.712 47.463529 
L 112.176 46.397647 
L 116.64 46.397647 
L 121.104 46.397647 
L 125.568 46.397647 
L 130.032 47.463529 
L 134.496 50.661176 
L 138.96 55.990588 
L 143.424 65.583529 
L 147.888 80.505882 
L 152.352 100.757647 
L 156.816 127.404706 
L 161.28 157.249412 
L 165.744 184.962353 
L 170.208 208.411765 
L 174.672 220.136471 
L 179.136 219.070588 
L 183.6 205.214118 
L 188.064 181.764706 
L 192.528 151.92 
L 196.992 121.009412 
L 201.456 95.428235 
L 205.92 75.176471 
L 210.384 61.32 
L 214.848 52.792941 
L 219.312 48.529412 
L 223.776 46.397647 
L 228.24 46.397647 
L 232.704 47.463529 
L 237.168 50.661176 
L 241.632 55.990588 
L 246.096 63.451765 
L 250.56 76.242353 
L 255.024 91.164706 
L 259.488 111.416471 
L 263.952 131.668235 
L 268.416 151.92 
L 272.88 168.974118 
L 277.344 179.632941 
L 281.808 183.896471 
L 286.272 181.764706 
L 290.736 176.435294 
L 295.2 173.237647 
L 299.664 175.369412 
L 304.128 183.896471 
L 308.592 197.752941 
L 313.056 212.675294 
L 317.52 224.4 
L 321.984 226.531765 
L 326.448 216.938824 
L 330.912 196.687059 
L 335.376 167.908235 
L 339.84 136.997647 
L 344.304 108.218824 
L 348.768 84.769412 
L 353.232 66.649412 
L 357.696 55.990588 
L 362.16 49.595294 
L 366.624 46.397647 
L 371.088 45.331765 
L 375.552 44.265882 
L 380.016 44.265882 
L 384.48 44.265882 
L 388.944 45.331765 
L 393.408 46.397647 
L 397.872 49.595294 
L 402.336 53.858824 
L 406.8 61.32 
L 411.264 71.978824 
L 415.728 86.901176 
L 420.192 106.087059 
L 424.656 126.338824 
L 429.12 147.656471 
L 433.584 164.710588 
L 438.048 177.501176 
L 442.512 182.830588 
L 446.976 181.764706 
L 451.44 177.501176 
L 455.904 173.237647 
L 460.368 173.237647 
L 464.832 180.698824 
L 469.296 193.489412 
L 473.76 209.477647 
L 478.224 222.268235 
L 482.688 227.597647 
L 487.152 221.202353 
L 491.616 203.082353 
L 496.08 176.435294 
L 500.544 145.524706 
L 505.008 114.614118 
L 509.472 90.098824 
L 513.936 70.912941 
L 518.4 58.122353 
L 522.864 50.661176 
L 527.328 46.397647 
L 531.792 45.331765 
L 536.256 44.265882 
" clip-path="url(#pf39d060690)" style="fill: none; stroke-dasharray: 1.5,2.475; stroke-dashoffset: 0; stroke: #0000ff; stroke-width: 1.5"/>
   </g>
   <g id="line2d_26">
    <path d="M 72 44.265882 
L 76.464 44.265882 
L 80.928 44.265882 
L 85.392 44.265882 
L 89.856 45.331765 
L 94.32 46.397647 
L 98.784 48.529412 
L 103.248 50.661176 
L 107.712 55.990588 
L 112.176 62.385882 
L 116.64 71.978824 
L 121.104 85.835294 
L 125.568 101.823529 
L 130.032 121.009412 
L 134.496 142.327059 
L 138.96 163.644706 
L 143.424 182.830588 
L 147.888 196.687059 
L 152.352 205.214118 
L 156.816 206.28 
L 161.28 198.818824 
L 165.744 183.896471 
L 170.208 164.710588 
L 174.672 142.327059 
L 179.136 118.877647 
L 183.6 98.625882 
L 188.064 80.505882 
L 192.528 67.715294 
L 196.992 58.122353 
L 201.456 52.792941 
L 205.92 51.727059 
L 210.384 53.858824 
L 214.848 59.188235 
L 219.312 68.781176 
L 223.776 83.703529 
L 228.24 102.889412 
L 232.704 124.207059 
L 237.168 147.656471 
L 241.632 167.908235 
L 246.096 182.830588 
L 250.56 189.225882 
L 255.024 186.028235 
L 259.488 175.369412 
L 263.952 157.249412 
L 268.416 136.997647 
L 272.88 116.745882 
L 277.344 98.625882 
L 281.808 86.901176 
L 286.272 81.571765 
L 290.736 83.703529 
L 295.2 94.362353 
L 299.664 114.614118 
L 304.128 140.195294 
L 308.592 168.974118 
L 313.056 196.687059 
L 317.52 215.872941 
L 321.984 223.334118 
L 326.448 216.938824 
L 330.912 198.818824 
L 335.376 172.171765 
L 339.84 142.327059 
L 344.304 114.614118 
L 348.768 91.164706 
L 353.232 73.044706 
L 357.696 62.385882 
L 362.16 54.924706 
L 366.624 52.792941 
L 371.088 53.858824 
L 375.552 58.122353 
L 380.016 66.649412 
L 384.48 79.44 
L 388.944 97.56 
L 393.408 118.877647 
L 397.872 141.261176 
L 402.336 162.578824 
L 406.8 179.632941 
L 411.264 188.16 
L 415.728 188.16 
L 420.192 178.567059 
L 424.656 162.578824 
L 429.12 142.327059 
L 433.584 121.009412 
L 438.048 102.889412 
L 442.512 89.032941 
L 446.976 81.571765 
L 451.44 81.571765 
L 455.904 90.098824 
L 460.368 108.218824 
L 464.832 132.734118 
L 469.296 161.512941 
L 473.76 190.291765 
L 478.224 212.675294 
L 482.688 223.334118 
L 487.152 221.202353 
L 491.616 205.214118 
L 496.08 179.632941 
L 500.544 150.854118 
L 505.008 121.009412 
L 509.472 96.494118 
L 513.936 77.308235 
L 518.4 63.451765 
L 522.864 55.990588 
L 527.328 50.661176 
L 531.792 47.463529 
L 536.256 46.397647 
" clip-path="url(#pf39d060690)" style="fill: none; stroke-dasharray: 5.55,2.4; stroke-dashoffset: 0; stroke: #008000; stroke-width: 1.5"/>
   </g>
   <g id="line2d_27">
    <path d="M 72 80.505882 
L 76.464 86.901176 
L 80.928 99.691765 
L 85.392 116.745882 
L 89.856 136.997647 
L 94.32 158.315294 
L 98.784 178.567059 
L 103.248 195.621176 
L 107.712 207.345882 
L 112.176 212.675294 
L 116.64 209.477647 
L 121.104 199.884706 
L 125.568 184.962353 
L 130.032 165.776471 
L 134.496 145.524706 
L 138.96 125.272941 
L 143.424 108.218824 
L 147.888 92.230588 
L 152.352 80.505882 
L 156.816 71.978824 
L 161.28 65.583529 
L 165.744 61.32 
L 170.208 59.188235 
L 174.672 57.056471 
L 179.136 54.924706 
L 183.6 53.858824 
L 188.064 51.727059 
L 192.528 50.661176 
L 196.992 50.661176 
L 201.456 50.661176 
L 205.92 53.858824 
L 210.384 60.254118 
L 214.848 69.847059 
L 219.312 83.703529 
L 223.776 99.691765 
L 228.24 115.68 
L 232.704 131.668235 
L 237.168 144.458824 
L 241.632 154.051765 
L 246.096 159.381176 
L 250.56 161.512941 
L 255.024 161.512941 
L 259.488 160.447059 
L 263.952 159.381176 
L 268.416 158.315294 
L 272.88 158.315294 
L 277.344 158.315294 
L 281.808 160.447059 
L 286.272 163.644706 
L 290.736 168.974118 
L 295.2 178.567059 
L 299.664 192.423529 
L 304.128 208.411765 
L 308.592 226.531765 
L 313.056 243.585882 
L 317.52 255.310588 
L 321.984 259.574118 
L 326.448 255.310588 
L 330.912 243.585882 
L 335.376 225.465882 
L 339.84 204.148235 
L 344.304 181.764706 
L 348.768 160.447059 
L 353.232 139.129412 
L 357.696 119.943529 
L 362.16 103.955294 
L 366.624 91.164706 
L 371.088 83.703529 
L 375.552 82.637647 
L 380.016 89.032941 
L 384.48 99.691765 
L 388.944 114.614118 
L 393.408 128.470588 
L 397.872 142.327059 
L 402.336 151.92 
L 406.8 158.315294 
L 411.264 160.447059 
L 415.728 161.512941 
L 420.192 160.447059 
L 424.656 159.381176 
L 429.12 159.381176 
L 433.584 158.315294 
L 438.048 158.315294 
L 442.512 159.381176 
L 446.976 162.578824 
L 451.44 166.842353 
L 455.904 175.369412 
L 460.368 188.16 
L 464.832 204.148235 
L 469.296 222.268235 
L 473.76 239.322353 
L 478.224 253.178824 
L 482.688 259.574118 
L 487.152 257.442353 
L 491.616 247.849412 
L 496.08 230.795294 
L 500.544 210.543529 
L 505.008 188.16 
L 509.472 165.776471 
L 513.936 144.458824 
L 518.4 124.207059 
L 522.864 106.087059 
L 527.328 90.098824 
L 531.792 79.44 
L 536.256 73.044706 
" clip-path="url(#pf39d060690)" style="fill: none; stroke-dasharray: 9.6,2.4,1.5,2.4; stroke-dashoffset: 0; stroke: #ff0000; stroke-width: 1.5"/>
   </g>
   <g id="line2d_28">
    <path d="M 72 96.208149 
L 76.464 99.405796 
L 80.928 104.969182 
L 85.392 111.78043 
L 89.856 118.565681 
L 94.32 124.519024 
L 98.784 129.224505 
L 103.248 132.630129 
L 107.712 134.839885 
L 112.176 136.06175 
L 116.64 136.815667 
L 121.104 137.205624 
L 125.568 137.725567 
L 130.032 138.635466 
L 134.496 140.299283 
L 138.96 142.76901 
L 143.424 146.434605 
L 147.888 151.114089 
L 152.352 156.547489 
L 156.816 162.110875 
L 161.28 166.478393 
L 165.744 168.376184 
L 170.208 166.348407 
L 174.672 159.745136 
L 179.136 148.254405 
L 183.6 132.994089 
L 188.064 115.550014 
L 192.528 97.92396 
L 196.992 82.013716 
L 201.456 69.639082 
L 205.92 61.397991 
L 210.384 57.628407 
L 214.848 57.992367 
L 219.312 61.943931 
L 223.776 68.547202 
L 228.24 77.100258 
L 232.704 86.277245 
L 237.168 95.350244 
L 241.632 103.461349 
L 246.096 110.038623 
L 250.56 114.95208 
L 255.024 118.331707 
L 259.488 120.593458 
L 263.952 121.763329 
L 268.416 122.335265 
L 272.88 122.75122 
L 277.344 123.453142 
L 281.808 125.19495 
L 286.272 128.678565 
L 290.736 135.177848 
L 295.2 145.94066 
L 299.664 161.226973 
L 304.128 180.464849 
L 308.592 201.132568 
L 313.056 220.032482 
L 317.52 232.537102 
L 321.984 235.162812 
L 326.448 226.66175 
L 330.912 208.021808 
L 335.376 182.232654 
L 339.84 153.843788 
L 344.304 126.676786 
L 348.768 103.72132 
L 353.232 85.575323 
L 357.696 72.706743 
L 362.16 63.919713 
L 366.624 58.69429 
L 371.088 56.458537 
L 375.552 57.342439 
L 380.016 61.008034 
L 384.48 67.169354 
L 388.944 75.150473 
L 393.408 84.041492 
L 397.872 93.114491 
L 402.336 101.407575 
L 406.8 108.452798 
L 411.264 113.782209 
L 415.728 117.551793 
L 420.192 120.021521 
L 424.656 121.529354 
L 429.12 122.20528 
L 433.584 122.56924 
L 438.048 123.141176 
L 442.512 124.389039 
L 446.976 127.170732 
L 451.44 132.682123 
L 455.904 142.145079 
L 460.368 156.365509 
L 464.832 174.849469 
L 469.296 195.933142 
L 473.76 215.898938 
L 478.224 230.509326 
L 482.688 236.072712 
L 487.152 230.405337 
L 491.616 213.949154 
L 496.08 189.407862 
L 500.544 161.200976 
L 505.008 133.280057 
L 509.472 108.946743 
L 513.936 89.552884 
L 518.4 75.098479 
L 522.864 64.959598 
L 527.328 57.992367 
L 531.792 53.858824 
L 536.256 51.675065 
" clip-path="url(#pf39d060690)" style="fill: none; stroke: #000000; stroke-width: 1.5; stroke-linecap: square"/>
   </g>
   <g id="patch_3">
    <path d="M 72 315 
L 72 43.2 
" style="fill: none; stroke: #000000; stroke-width: 0.8; stroke-linejoin: miter; stroke-linecap: square"/>
   </g>
   <g id="patch_4">
    <path d="M 518.4 315 
L 518.4 43.2 
" style="fill: none; stroke: #000000; stroke-width: 0.8; stroke-linejoin: miter; stroke-linecap: square"/>
   </g>
   <g id="patch_5">
    <path d="M 72 315 
L 518.4 315 
" style="fill: none; stroke: #000000; stroke-width: 0.8; stroke-linejoin: miter; stroke-linecap: square"/>
   </g>
   <g id="patch_6">
    <path d="M 72 43.2 
L 518.4 43.2 
" style="fill: none; stroke: #000000; stroke-width: 0.8; stroke-linejoin: miter; stroke-linecap: square"/>
   </g>
   <g id="text_15">
    <!-- Student ID = 244 -->
    <g transform="translate(242.989688 37.2)scale(0.12 -0.12)">
     <defs>
      <path id="DejaVuSans-53" d="M 3425 4513 
L 3425 3897 
Q 3066 4069 2747 4153 
Q 2428 4238 2131 4238 
Q 1616 4238 1336 4038 
Q 1056 3838 1056 3469 
Q 1056 3159 1242 3001 
Q 1428 2844 1947 2747 
L 2328 2669 
Q 3034 2534 3370 2195 
Q 3706 1856 3706 1288 
Q 3706 609 3251 259 
Q 2797 -91 1919 -91 
Q 1588 -91 1214 -16 
Q 841 59 441 206 
L 441 856 
Q 825 641 1194 531 
Q 1563 422 1919 422 
Q 2459 422 2753 634 
Q 3047 847 3047 1241 
Q 3047 1584 2836 1778 
Q 2625 1972 2144 2069 
L 1759 2144 
Q 1053 2284 737 2584 
Q 422 2884 422 3419 
Q 422 4038 858 4394 
Q 1294 4750 2059 4750 
Q 2388 4750 2728 4690 
Q 3069 4631 3425 4513 
z
" transform="scale(0.015625)"/>
      <path id="DejaVuSans-74" d="M 1172 4494 
L 1172 3500 
L 2356 3500 
L 2356 3053 
L 1172 3053 
L 1172 1153 
Q 1172 725 1289 603 
Q 1406 481 1766 481 
L 2356 481 
L 2356 0 
L 1766 0 
Q 1100 0 847 248 
Q 594 497 594 1153 
L 594 3053 
L 172 3053 
L 172 3500 
L 594 3500 
L 594 4494 
L 1172 4494 
z
" transform="scale(0.015625)"/>
      <path id="DejaVuSans-75" d="M 544 1381 
L 544 3500 
L 1119 3500 
L 1119 1403 
Q 1119 906 1312 657 
Q 1506 409 1894 409 
Q 2359 409 2629 706 
Q 2900 1003 2900 1516 
L 2900 3500 
L 3475 3500 
L 3475 0 
L 2900 0 
L 2900 538 
Q 2691 219 2414 64 
Q 2138 -91 1772 -91 
Q 1169 -91 856 284 
Q 544 659 544 1381 
z
M 1991 3584 
L 1991 3584 
z
" transform="scale(0.015625)"/>
      <path id="DejaVuSans-64" d="M 2906 2969 
L 2906 4863 
L 3481 4863 
L 3481 0 
L 2906 0 
L 2906 525 
Q 2725 213 2448 61 
Q 2172 -91 1784 -91 
Q 1150 -91 751 415 
Q 353 922 353 1747 
Q 353 2572 751 3078 
Q 1150 3584 1784 3584 
Q 2172 3584 2448 3432 
Q 2725 3281 2906 2969 
z
M 947 1747 
Q 947 1113 1208 752 
Q 1469 391 1925 391 
Q 2381 391 2643 752 
Q 2906 1113 2906 1747 
Q 2906 2381 2643 2742 
Q 2381 3103 1925 3103 
Q 1469 3103 1208 2742 
Q 947 2381 947 1747 
z
" transform="scale(0.015625)"/>
      <path id="DejaVuSans-65" d="M 3597 1894 
L 3597 1613 
L 953 1613 
Q 991 1019 1311 708 
Q 1631 397 2203 397 
Q 2534 397 2845 478 
Q 3156 559 3463 722 
L 3463 178 
Q 3153 47 2828 -22 
Q 2503 -91 2169 -91 
Q 1331 -91 842 396 
Q 353 884 353 1716 
Q 353 2575 817 3079 
Q 1281 3584 2069 3584 
Q 2775 3584 3186 3129 
Q 3597 2675 3597 1894 
z
M 3022 2063 
Q 3016 2534 2758 2815 
Q 2500 3097 2075 3097 
Q 1594 3097 1305 2825 
Q 1016 2553 972 2059 
L 3022 2063 
z
" transform="scale(0.015625)"/>
      <path id="DejaVuSans-6e" d="M 3513 2113 
L 3513 0 
L 2938 0 
L 2938 2094 
Q 2938 2591 2744 2837 
Q 2550 3084 2163 3084 
Q 1697 3084 1428 2787 
Q 1159 2491 1159 1978 
L 1159 0 
L 581 0 
L 581 3500 
L 1159 3500 
L 1159 2956 
Q 1366 3272 1645 3428 
Q 1925 3584 2291 3584 
Q 2894 3584 3203 3211 
Q 3513 2838 3513 2113 
z
" transform="scale(0.015625)"/>
      <path id="DejaVuSans-49" d="M 628 4666 
L 1259 4666 
L 1259 0 
L 628 0 
L 628 4666 
z
" transform="scale(0.015625)"/>
      <path id="DejaVuSans-44" d="M 1259 4147 
L 1259 519 
L 2022 519 
Q 2988 519 3436 956 
Q 3884 1394 3884 2338 
Q 3884 3275 3436 3711 
Q 2988 4147 2022 4147 
L 1259 4147 
z
M 628 4666 
L 1925 4666 
Q 3281 4666 3915 4102 
Q 4550 3538 4550 2338 
Q 4550 1131 3912 565 
Q 3275 0 1925 0 
L 628 0 
L 628 4666 
z
" transform="scale(0.015625)"/>
      <path id="DejaVuSans-3d" d="M 678 2906 
L 4684 2906 
L 4684 2381 
L 678 2381 
L 678 2906 
z
M 678 1631 
L 4684 1631 
L 4684 1100 
L 678 1100 
L 678 1631 
z
" transform="scale(0.015625)"/>
     </defs>
     <use xlink:href="#DejaVuSans-53"/>
     <use xlink:href="#DejaVuSans-74" x="63.476562"/>
     <use xlink:href="#DejaVuSans-75" x="102.685547"/>
     <use xlink:href="#DejaVuSans-64" x="166.064453"/>
     <use xlink:href="#DejaVuSans-65" x="229.541016"/>
     <use xlink:href="#DejaVuSans-6e" x="291.064453"/>
     <use xlink:href="#DejaVuSans-74" x="354.443359"/>
     <use xlink:href="#DejaVuSans-20" x="393.652344"/>
     <use xlink:href="#DejaVuSans-49" x="425.439453"/>
     <use xlink:href="#DejaVuSans-44" x="454.931641"/>
     <use xlink:href="#DejaVuSans-20" x="531.933594"/>
     <use xlink:href="#DejaVuSans-3d" x="563.720703"/>
     <use xlink:href="#DejaVuSans-20" x="647.509766"/>
     <use xlink:href="#DejaVuSans-32" x="679.296875"/>
     <use xlink:href="#DejaVuSans-34" x="742.919922"/>
     <use xlink:href="#DejaVuSans-34" x="806.542969"/>
    </g>
   </g>
   <g id="legend_1">
    <g id="patch_7">
     <path d="M 412.1625 310 
L 511.4 310 
Q 513.4 310 513.4 308 
L 513.4 250.2875 
Q 513.4 248.2875 511.4 248.2875 
L 412.1625 248.2875 
Q 410.1625 248.2875 410.1625 250.2875 
L 410.1625 308 
Q 410.1625 310 412.1625 310 
z
" style="fill: #ffffff; opacity: 0.8; stroke: #cccccc; stroke-linejoin: miter"/>
    </g>
    <g id="line2d_29">
     <path d="M 414.1625 256.385938 
L 424.1625 256.385938 
L 434.1625 256.385938 
" style="fill: none; stroke-dasharray: 1.5,2.475; stroke-dashoffset: 0; stroke: #0000ff; stroke-width: 1.5"/>
    </g>
    <g id="text_16">
     <!-- Row index 10 -->
     <g transform="translate(442.1625 259.885938)scale(0.1 -0.1)">
      <defs>
       <path id="DejaVuSans-52" d="M 2841 2188 
Q 3044 2119 3236 1894 
Q 3428 1669 3622 1275 
L 4263 0 
L 3584 0 
L 2988 1197 
Q 2756 1666 2539 1819 
Q 2322 1972 1947 1972 
L 1259 1972 
L 1259 0 
L 628 0 
L 628 4666 
L 2053 4666 
Q 2853 4666 3247 4331 
Q 3641 3997 3641 3322 
Q 3641 2881 3436 2590 
Q 3231 2300 2841 2188 
z
M 1259 4147 
L 1259 2491 
L 2053 2491 
Q 2509 2491 2742 2702 
Q 2975 2913 2975 3322 
Q 2975 3731 2742 3939 
Q 2509 4147 2053 4147 
L 1259 4147 
z
" transform="scale(0.015625)"/>
       <path id="DejaVuSans-6f" d="M 1959 3097 
Q 1497 3097 1228 2736 
Q 959 2375 959 1747 
Q 959 1119 1226 758 
Q 1494 397 1959 397 
Q 2419 397 2687 759 
Q 2956 1122 2956 1747 
Q 2956 2369 2687 2733 
Q 2419 3097 1959 3097 
z
M 1959 3584 
Q 2709 3584 3137 3096 
Q 3566 2609 3566 1747 
Q 3566 888 3137 398 
Q 2709 -91 1959 -91 
Q 1206 -91 779 398 
Q 353 888 353 1747 
Q 353 2609 779 3096 
Q 1206 3584 1959 3584 
z
" transform="scale(0.015625)"/>
       <path id="DejaVuSans-77" d="M 269 3500 
L 844 3500 
L 1563 769 
L 2278 3500 
L 2956 3500 
L 3675 769 
L 4391 3500 
L 4966 3500 
L 4050 0 
L 3372 0 
L 2619 2869 
L 1863 0 
L 1184 0 
L 269 3500 
z
" transform="scale(0.015625)"/>
      </defs>
      <use xlink:href="#DejaVuSans-52"/>
      <use xlink:href="#DejaVuSans-6f" x="64.982422"/>
      <use xlink:href="#DejaVuSans-77" x="126.164062"/>
      <use xlink:href="#DejaVuSans-20" x="207.951172"/>
      <use xlink:href="#DejaVuSans-69" x="239.738281"/>
      <use xlink:href="#DejaVuSans-6e" x="267.521484"/>
      <use xlink:href="#DejaVuSans-64" x="330.900391"/>
      <use xlink:href="#DejaVuSans-65" x="394.376953"/>
      <use xlink:href="#DejaVuSans-78" x="454.150391"/>
      <use xlink:href="#DejaVuSans-20" x="513.330078"/>
      <use xlink:href="#DejaVuSans-31" x="545.117188"/>
      <use xlink:href="#DejaVuSans-30" x="608.740234"/>
     </g>
    </g>
    <g id="line2d_30">
     <path d="M 414.1625 271.064062 
L 424.1625 271.064062 
L 434.1625 271.064062 
" style="fill: none; stroke-dasharray: 5.55,2.4; stroke-dashoffset: 0; stroke: #008000; stroke-width: 1.5"/>
    </g>
    <g id="text_17">
     <!-- Row index 20 -->
     <g transform="translate(442.1625 274.564062)scale(0.1 -0.1)">
      <use xlink:href="#DejaVuSans-52"/>
      <use xlink:href="#DejaVuSans-6f" x="64.982422"/>
      <use xlink:href="#DejaVuSans-77" x="126.164062"/>
      <use xlink:href="#DejaVuSans-20" x="207.951172"/>
      <use xlink:href="#DejaVuSans-69" x="239.738281"/>
      <use xlink:href="#DejaVuSans-6e" x="267.521484"/>
      <use xlink:href="#DejaVuSans-64" x="330.900391"/>
      <use xlink:href="#DejaVuSans-65" x="394.376953"/>
      <use xlink:href="#DejaVuSans-78" x="454.150391"/>
      <use xlink:href="#DejaVuSans-20" x="513.330078"/>
      <use xlink:href="#DejaVuSans-32" x="545.117188"/>
      <use xlink:href="#DejaVuSans-30" x="608.740234"/>
     </g>
    </g>
    <g id="line2d_31">
     <path d="M 414.1625 285.742188 
L 424.1625 285.742188 
L 434.1625 285.742188 
" style="fill: none; stroke-dasharray: 9.6,2.4,1.5,2.4; stroke-dashoffset: 0; stroke: #ff0000; stroke-width: 1.5"/>
    </g>
    <g id="text_18">
     <!-- Row index 30 -->
     <g transform="translate(442.1625 289.242188)scale(0.1 -0.1)">
      <defs>
       <path id="DejaVuSans-33" d="M 2597 2516 
Q 3050 2419 3304 2112 
Q 3559 1806 3559 1356 
Q 3559 666 3084 287 
Q 2609 -91 1734 -91 
Q 1441 -91 1130 -33 
Q 819 25 488 141 
L 488 750 
Q 750 597 1062 519 
Q 1375 441 1716 441 
Q 2309 441 2620 675 
Q 2931 909 2931 1356 
Q 2931 1769 2642 2001 
Q 2353 2234 1838 2234 
L 1294 2234 
L 1294 2753 
L 1863 2753 
Q 2328 2753 2575 2939 
Q 2822 3125 2822 3475 
Q 2822 3834 2567 4026 
Q 2313 4219 1838 4219 
Q 1578 4219 1281 4162 
Q 984 4106 628 3988 
L 628 4550 
Q 988 4650 1302 4700 
Q 1616 4750 1894 4750 
Q 2613 4750 3031 4423 
Q 3450 4097 3450 3541 
Q 3450 3153 3228 2886 
Q 3006 2619 2597 2516 
z
" transform="scale(0.015625)"/>
      </defs>
      <use xlink:href="#DejaVuSans-52"/>
      <use xlink:href="#DejaVuSans-6f" x="64.982422"/>
      <use xlink:href="#DejaVuSans-77" x="126.164062"/>
      <use xlink:href="#DejaVuSans-20" x="207.951172"/>
      <use xlink:href="#DejaVuSans-69" x="239.738281"/>
      <use xlink:href="#DejaVuSans-6e" x="267.521484"/>
      <use xlink:href="#DejaVuSans-64" x="330.900391"/>
      <use xlink:href="#DejaVuSans-65" x="394.376953"/>
      <use xlink:href="#DejaVuSans-78" x="454.150391"/>
      <use xlink:href="#DejaVuSans-20" x="513.330078"/>
      <use xlink:href="#DejaVuSans-33" x="545.117188"/>
      <use xlink:href="#DejaVuSans-30" x="608.740234"/>
     </g>
    </g>
    <g id="line2d_32">
     <path d="M 414.1625 300.420313 
L 424.1625 300.420313 
L 434.1625 300.420313 
" style="fill: none; stroke: #000000; stroke-width: 1.5; stroke-linecap: square"/>
    </g>
    <g id="text_19">
     <!-- Row mean -->
     <g transform="translate(442.1625 303.920313)scale(0.1 -0.1)">
      <defs>
       <path id="DejaVuSans-6d" d="M 3328 2828 
Q 3544 3216 3844 3400 
Q 4144 3584 4550 3584 
Q 5097 3584 5394 3201 
Q 5691 2819 5691 2113 
L 5691 0 
L 5113 0 
L 5113 2094 
Q 5113 2597 4934 2840 
Q 4756 3084 4391 3084 
Q 3944 3084 3684 2787 
Q 3425 2491 3425 1978 
L 3425 0 
L 2847 0 
L 2847 2094 
Q 2847 2600 2669 2842 
Q 2491 3084 2119 3084 
Q 1678 3084 1418 2786 
Q 1159 2488 1159 1978 
L 1159 0 
L 581 0 
L 581 3500 
L 1159 3500 
L 1159 2956 
Q 1356 3278 1631 3431 
Q 1906 3584 2284 3584 
Q 2666 3584 2933 3390 
Q 3200 3197 3328 2828 
z
" transform="scale(0.015625)"/>
      </defs>
      <use xlink:href="#DejaVuSans-52"/>
      <use xlink:href="#DejaVuSans-6f" x="64.982422"/>
      <use xlink:href="#DejaVuSans-77" x="126.164062"/>
      <use xlink:href="#DejaVuSans-20" x="207.951172"/>
      <use xlink:href="#DejaVuSans-6d" x="239.738281"/>
      <use xlink:href="#DejaVuSans-65" x="337.150391"/>
      <use xlink:href="#DejaVuSans-61" x="398.673828"/>
      <use xlink:href="#DejaVuSans-6e" x="459.953125"/>
     </g>
    </g>
   </g>
  </g>
 </g>
 <defs>
  <clipPath id="pf39d060690">
   <rect x="72" y="43.2" width="446.4" height="271.8"/>
  </clipPath>
 </defs>
</svg>
