<?xml version="1.0" encoding="utf-8" standalone="no"?>
<!DOCTYPE svg PUBLIC "-//W3C//DTD SVG 1.1//EN"
  "http://www.w3.org/Graphics/SVG/1.1/DTD/svg11.dtd">
<!-- Created with matplotlib (https://matplotlib.org/) -->
<svg height="360pt" version="1.1" viewBox="0 0 864 360" width="864pt" xmlns="http://www.w3.org/2000/svg" xmlns:xlink="http://www.w3.org/1999/xlink">
 <defs>
  <style type="text/css">
*{stroke-linecap:butt;stroke-linejoin:round;}
  </style>
 </defs>
 <g id="figure_1">
  <g id="patch_1">
   <path d="M 0 360 
L 864 360 
L 864 0 
L 0 0 
z
" style="fill:#ffffff;"/>
  </g>
  <g id="axes_1">
   <g id="patch_2">
    <path d="M 108 320.4 
L 304.941176 320.4 
L 304.941176 43.2 
L 108 43.2 
z
" style="fill:#ffffff;"/>
   </g>
   <g id="matplotlib.axis_1">
    <g id="xtick_1">
     <g id="line2d_1">
      <path clip-path="url(#p29a03e24b3)" d="M 127.694118 320.4 
L 127.694118 43.2 
" style="fill:none;stroke:#b0b0b0;stroke-linecap:square;stroke-width:0.8;"/>
     </g>
     <g id="line2d_2">
      <defs>
       <path d="M 0 0 
L 0 3.5 
" id="me3bfcf2c25" style="stroke:#000000;stroke-width:0.8;"/>
      </defs>
      <g>
       <use style="stroke:#000000;stroke-width:0.8;" x="127.694118" xlink:href="#me3bfcf2c25" y="320.4"/>
      </g>
     </g>
     <g id="text_1">
      <!-- −4 -->
      <defs>
       <path d="M 10.59375 35.5 
L 73.1875 35.5 
L 73.1875 27.203125 
L 10.59375 27.203125 
z
" id="DejaVuSans-8722"/>
       <path d="M 37.796875 64.3125 
L 12.890625 25.390625 
L 37.796875 25.390625 
z
M 35.203125 72.90625 
L 47.609375 72.90625 
L 47.609375 25.390625 
L 58.015625 25.390625 
L 58.015625 17.1875 
L 47.609375 17.1875 
L 47.609375 0 
L 37.796875 0 
L 37.796875 17.1875 
L 4.890625 17.1875 
L 4.890625 26.703125 
z
" id="DejaVuSans-52"/>
      </defs>
      <g transform="translate(120.323024 334.998438)scale(0.1 -0.1)">
       <use xlink:href="#DejaVuSans-8722"/>
       <use x="83.789062" xlink:href="#DejaVuSans-52"/>
      </g>
     </g>
    </g>
    <g id="xtick_2">
     <g id="line2d_3">
      <path clip-path="url(#p29a03e24b3)" d="M 167.082353 320.4 
L 167.082353 43.2 
" style="fill:none;stroke:#b0b0b0;stroke-linecap:square;stroke-width:0.8;"/>
     </g>
     <g id="line2d_4">
      <g>
       <use style="stroke:#000000;stroke-width:0.8;" x="167.082353" xlink:href="#me3bfcf2c25" y="320.4"/>
      </g>
     </g>
     <g id="text_2">
      <!-- −2 -->
      <defs>
       <path d="M 19.1875 8.296875 
L 53.609375 8.296875 
L 53.609375 0 
L 7.328125 0 
L 7.328125 8.296875 
Q 12.9375 14.109375 22.625 23.890625 
Q 32.328125 33.6875 34.8125 36.53125 
Q 39.546875 41.84375 41.421875 45.53125 
Q 43.3125 49.21875 43.3125 52.78125 
Q 43.3125 58.59375 39.234375 62.25 
Q 35.15625 65.921875 28.609375 65.921875 
Q 23.96875 65.921875 18.8125 64.3125 
Q 13.671875 62.703125 7.8125 59.421875 
L 7.8125 69.390625 
Q 13.765625 71.78125 18.9375 73 
Q 24.125 74.21875 28.421875 74.21875 
Q 39.75 74.21875 46.484375 68.546875 
Q 53.21875 62.890625 53.21875 53.421875 
Q 53.21875 48.921875 51.53125 44.890625 
Q 49.859375 40.875 45.40625 35.40625 
Q 44.1875 33.984375 37.640625 27.21875 
Q 31.109375 20.453125 19.1875 8.296875 
z
" id="DejaVuSans-50"/>
      </defs>
      <g transform="translate(159.711259 334.998438)scale(0.1 -0.1)">
       <use xlink:href="#DejaVuSans-8722"/>
       <use x="83.789062" xlink:href="#DejaVuSans-50"/>
      </g>
     </g>
    </g>
    <g id="xtick_3">
     <g id="line2d_5">
      <path clip-path="url(#p29a03e24b3)" d="M 206.470588 320.4 
L 206.470588 43.2 
" style="fill:none;stroke:#b0b0b0;stroke-linecap:square;stroke-width:0.8;"/>
     </g>
     <g id="line2d_6">
      <g>
       <use style="stroke:#000000;stroke-width:0.8;" x="206.470588" xlink:href="#me3bfcf2c25" y="320.4"/>
      </g>
     </g>
     <g id="text_3">
      <!-- 0 -->
      <defs>
       <path d="M 31.78125 66.40625 
Q 24.171875 66.40625 20.328125 58.90625 
Q 16.5 51.421875 16.5 36.375 
Q 16.5 21.390625 20.328125 13.890625 
Q 24.171875 6.390625 31.78125 6.390625 
Q 39.453125 6.390625 43.28125 13.890625 
Q 47.125 21.390625 47.125 36.375 
Q 47.125 51.421875 43.28125 58.90625 
Q 39.453125 66.40625 31.78125 66.40625 
z
M 31.78125 74.21875 
Q 44.046875 74.21875 50.515625 64.515625 
Q 56.984375 54.828125 56.984375 36.375 
Q 56.984375 17.96875 50.515625 8.265625 
Q 44.046875 -1.421875 31.78125 -1.421875 
Q 19.53125 -1.421875 13.0625 8.265625 
Q 6.59375 17.96875 6.59375 36.375 
Q 6.59375 54.828125 13.0625 64.515625 
Q 19.53125 74.21875 31.78125 74.21875 
z
" id="DejaVuSans-48"/>
      </defs>
      <g transform="translate(203.289338 334.998438)scale(0.1 -0.1)">
       <use xlink:href="#DejaVuSans-48"/>
      </g>
     </g>
    </g>
    <g id="xtick_4">
     <g id="line2d_7">
      <path clip-path="url(#p29a03e24b3)" d="M 245.858824 320.4 
L 245.858824 43.2 
" style="fill:none;stroke:#b0b0b0;stroke-linecap:square;stroke-width:0.8;"/>
     </g>
     <g id="line2d_8">
      <g>
       <use style="stroke:#000000;stroke-width:0.8;" x="245.858824" xlink:href="#me3bfcf2c25" y="320.4"/>
      </g>
     </g>
     <g id="text_4">
      <!-- 2 -->
      <g transform="translate(242.677574 334.998438)scale(0.1 -0.1)">
       <use xlink:href="#DejaVuSans-50"/>
      </g>
     </g>
    </g>
    <g id="xtick_5">
     <g id="line2d_9">
      <path clip-path="url(#p29a03e24b3)" d="M 285.247059 320.4 
L 285.247059 43.2 
" style="fill:none;stroke:#b0b0b0;stroke-linecap:square;stroke-width:0.8;"/>
     </g>
     <g id="line2d_10">
      <g>
       <use style="stroke:#000000;stroke-width:0.8;" x="285.247059" xlink:href="#me3bfcf2c25" y="320.4"/>
      </g>
     </g>
     <g id="text_5">
      <!-- 4 -->
      <g transform="translate(282.065809 334.998438)scale(0.1 -0.1)">
       <use xlink:href="#DejaVuSans-52"/>
      </g>
     </g>
    </g>
   </g>
   <g id="matplotlib.axis_2">
    <g id="ytick_1">
     <g id="line2d_11">
      <path clip-path="url(#p29a03e24b3)" d="M 108 296.874577 
L 304.941176 296.874577 
" style="fill:none;stroke:#b0b0b0;stroke-linecap:square;stroke-width:0.8;"/>
     </g>
     <g id="line2d_12">
      <defs>
       <path d="M 0 0 
L -3.5 0 
" id="mc9d184c6ba" style="stroke:#000000;stroke-width:0.8;"/>
      </defs>
      <g>
       <use style="stroke:#000000;stroke-width:0.8;" x="108" xlink:href="#mc9d184c6ba" y="296.874577"/>
      </g>
     </g>
     <g id="text_6">
      <!-- −150 -->
      <defs>
       <path d="M 12.40625 8.296875 
L 28.515625 8.296875 
L 28.515625 63.921875 
L 10.984375 60.40625 
L 10.984375 69.390625 
L 28.421875 72.90625 
L 38.28125 72.90625 
L 38.28125 8.296875 
L 54.390625 8.296875 
L 54.390625 0 
L 12.40625 0 
z
" id="DejaVuSans-49"/>
       <path d="M 10.796875 72.90625 
L 49.515625 72.90625 
L 49.515625 64.59375 
L 19.828125 64.59375 
L 19.828125 46.734375 
Q 21.96875 47.46875 24.109375 47.828125 
Q 26.265625 48.1875 28.421875 48.1875 
Q 40.625 48.1875 47.75 41.5 
Q 54.890625 34.8125 54.890625 23.390625 
Q 54.890625 11.625 47.5625 5.09375 
Q 40.234375 -1.421875 26.90625 -1.421875 
Q 22.3125 -1.421875 17.546875 -0.640625 
Q 12.796875 0.140625 7.71875 1.703125 
L 7.71875 11.625 
Q 12.109375 9.234375 16.796875 8.0625 
Q 21.484375 6.890625 26.703125 6.890625 
Q 35.15625 6.890625 40.078125 11.328125 
Q 45.015625 15.765625 45.015625 23.390625 
Q 45.015625 31 40.078125 35.4375 
Q 35.15625 39.890625 26.703125 39.890625 
Q 22.75 39.890625 18.8125 39.015625 
Q 14.890625 38.140625 10.796875 36.28125 
z
" id="DejaVuSans-53"/>
      </defs>
      <g transform="translate(73.532813 300.673796)scale(0.1 -0.1)">
       <use xlink:href="#DejaVuSans-8722"/>
       <use x="83.789062" xlink:href="#DejaVuSans-49"/>
       <use x="147.412109" xlink:href="#DejaVuSans-53"/>
       <use x="211.035156" xlink:href="#DejaVuSans-48"/>
      </g>
     </g>
    </g>
    <g id="ytick_2">
     <g id="line2d_13">
      <path clip-path="url(#p29a03e24b3)" d="M 108 264.764312 
L 304.941176 264.764312 
" style="fill:none;stroke:#b0b0b0;stroke-linecap:square;stroke-width:0.8;"/>
     </g>
     <g id="line2d_14">
      <g>
       <use style="stroke:#000000;stroke-width:0.8;" x="108" xlink:href="#mc9d184c6ba" y="264.764312"/>
      </g>
     </g>
     <g id="text_7">
      <!-- −100 -->
      <g transform="translate(73.532813 268.56353)scale(0.1 -0.1)">
       <use xlink:href="#DejaVuSans-8722"/>
       <use x="83.789062" xlink:href="#DejaVuSans-49"/>
       <use x="147.412109" xlink:href="#DejaVuSans-48"/>
       <use x="211.035156" xlink:href="#DejaVuSans-48"/>
      </g>
     </g>
    </g>
    <g id="ytick_3">
     <g id="line2d_15">
      <path clip-path="url(#p29a03e24b3)" d="M 108 232.654046 
L 304.941176 232.654046 
" style="fill:none;stroke:#b0b0b0;stroke-linecap:square;stroke-width:0.8;"/>
     </g>
     <g id="line2d_16">
      <g>
       <use style="stroke:#000000;stroke-width:0.8;" x="108" xlink:href="#mc9d184c6ba" y="232.654046"/>
      </g>
     </g>
     <g id="text_8">
      <!-- −50 -->
      <g transform="translate(79.895313 236.453265)scale(0.1 -0.1)">
       <use xlink:href="#DejaVuSans-8722"/>
       <use x="83.789062" xlink:href="#DejaVuSans-53"/>
       <use x="147.412109" xlink:href="#DejaVuSans-48"/>
      </g>
     </g>
    </g>
    <g id="ytick_4">
     <g id="line2d_17">
      <path clip-path="url(#p29a03e24b3)" d="M 108 200.543781 
L 304.941176 200.543781 
" style="fill:none;stroke:#b0b0b0;stroke-linecap:square;stroke-width:0.8;"/>
     </g>
     <g id="line2d_18">
      <g>
       <use style="stroke:#000000;stroke-width:0.8;" x="108" xlink:href="#mc9d184c6ba" y="200.543781"/>
      </g>
     </g>
     <g id="text_9">
      <!-- 0 -->
      <g transform="translate(94.6375 204.342999)scale(0.1 -0.1)">
       <use xlink:href="#DejaVuSans-48"/>
      </g>
     </g>
    </g>
    <g id="ytick_5">
     <g id="line2d_19">
      <path clip-path="url(#p29a03e24b3)" d="M 108 168.433515 
L 304.941176 168.433515 
" style="fill:none;stroke:#b0b0b0;stroke-linecap:square;stroke-width:0.8;"/>
     </g>
     <g id="line2d_20">
      <g>
       <use style="stroke:#000000;stroke-width:0.8;" x="108" xlink:href="#mc9d184c6ba" y="168.433515"/>
      </g>
     </g>
     <g id="text_10">
      <!-- 50 -->
      <g transform="translate(88.275 172.232734)scale(0.1 -0.1)">
       <use xlink:href="#DejaVuSans-53"/>
       <use x="63.623047" xlink:href="#DejaVuSans-48"/>
      </g>
     </g>
    </g>
    <g id="ytick_6">
     <g id="line2d_21">
      <path clip-path="url(#p29a03e24b3)" d="M 108 136.323249 
L 304.941176 136.323249 
" style="fill:none;stroke:#b0b0b0;stroke-linecap:square;stroke-width:0.8;"/>
     </g>
     <g id="line2d_22">
      <g>
       <use style="stroke:#000000;stroke-width:0.8;" x="108" xlink:href="#mc9d184c6ba" y="136.323249"/>
      </g>
     </g>
     <g id="text_11">
      <!-- 100 -->
      <g transform="translate(81.9125 140.122468)scale(0.1 -0.1)">
       <use xlink:href="#DejaVuSans-49"/>
       <use x="63.623047" xlink:href="#DejaVuSans-48"/>
       <use x="127.246094" xlink:href="#DejaVuSans-48"/>
      </g>
     </g>
    </g>
    <g id="ytick_7">
     <g id="line2d_23">
      <path clip-path="url(#p29a03e24b3)" d="M 108 104.212984 
L 304.941176 104.212984 
" style="fill:none;stroke:#b0b0b0;stroke-linecap:square;stroke-width:0.8;"/>
     </g>
     <g id="line2d_24">
      <g>
       <use style="stroke:#000000;stroke-width:0.8;" x="108" xlink:href="#mc9d184c6ba" y="104.212984"/>
      </g>
     </g>
     <g id="text_12">
      <!-- 150 -->
      <g transform="translate(81.9125 108.012203)scale(0.1 -0.1)">
       <use xlink:href="#DejaVuSans-49"/>
       <use x="63.623047" xlink:href="#DejaVuSans-53"/>
       <use x="127.246094" xlink:href="#DejaVuSans-48"/>
      </g>
     </g>
    </g>
    <g id="ytick_8">
     <g id="line2d_25">
      <path clip-path="url(#p29a03e24b3)" d="M 108 72.102718 
L 304.941176 72.102718 
" style="fill:none;stroke:#b0b0b0;stroke-linecap:square;stroke-width:0.8;"/>
     </g>
     <g id="line2d_26">
      <g>
       <use style="stroke:#000000;stroke-width:0.8;" x="108" xlink:href="#mc9d184c6ba" y="72.102718"/>
      </g>
     </g>
     <g id="text_13">
      <!-- 200 -->
      <g transform="translate(81.9125 75.901937)scale(0.1 -0.1)">
       <use xlink:href="#DejaVuSans-50"/>
       <use x="63.623047" xlink:href="#DejaVuSans-48"/>
       <use x="127.246094" xlink:href="#DejaVuSans-48"/>
      </g>
     </g>
    </g>
   </g>
   <g id="line2d_27">
    <path clip-path="url(#p29a03e24b3)" d="M 108 118.341501 
L 109.969412 122.973391 
L 111.938824 128.911399 
L 113.908235 135.942748 
L 115.877647 143.86761 
L 117.847059 152.498796 
L 119.816471 161.661445 
L 121.785882 171.192719 
L 123.755294 180.941496 
L 125.724706 190.768057 
L 127.694118 200.543781 
L 129.663529 210.150835 
L 131.632941 219.481871 
L 133.602353 228.439707 
L 135.571765 236.937031 
L 137.541176 244.896085 
L 139.510588 252.248357 
L 141.48 258.934277 
L 143.449412 264.902905 
L 145.418824 270.111624 
L 147.388235 274.525832 
L 149.357647 278.118635 
L 151.327059 280.870533 
L 153.296471 282.769121 
L 155.265882 283.808771 
L 157.235294 283.990333 
L 159.204706 283.320819 
L 161.174118 281.813098 
L 163.143529 279.485589 
L 165.112941 276.361951 
L 167.082353 272.470775 
L 169.051765 267.845276 
L 171.021176 262.522984 
L 172.990588 256.545437 
L 174.96 249.957873 
L 176.929412 242.808918 
L 178.898824 235.150283 
L 180.868235 227.036453 
L 182.837647 218.524378 
L 184.807059 209.673168 
L 186.776471 200.543781 
L 188.745882 191.198715 
L 190.715294 181.701703 
L 192.684706 172.117402 
L 194.654118 162.511087 
L 196.623529 152.948339 
L 198.592941 143.494741 
L 200.562353 134.215565 
L 202.531765 125.175469 
L 204.501176 116.438187 
L 206.470588 108.066216 
L 208.44 100.120515 
L 210.409412 92.660193 
L 212.378824 85.742201 
L 214.348235 79.421023 
L 216.317647 73.748369 
L 218.287059 68.772868 
L 220.256471 64.539757 
L 222.225882 61.090572 
L 224.195294 58.462845 
L 226.164706 56.689791 
L 228.134118 55.8 
L 230.103529 55.817131 
L 232.072941 56.759604 
L 234.042353 58.640287 
L 236.011765 61.466193 
L 237.981176 65.23817 
L 239.950588 69.950593 
L 241.92 75.591054 
L 243.889412 82.140056 
L 245.858824 89.570703 
L 247.828235 97.848393 
L 249.797647 106.930509 
L 251.767059 116.766112 
L 253.736471 127.295631 
L 255.705882 138.450555 
L 257.675294 150.153125 
L 259.644706 162.316029 
L 261.614118 174.842087 
L 263.583529 187.623948 
L 265.552941 200.543781 
L 267.522353 213.472964 
L 269.491765 226.271779 
L 271.461176 238.789103 
L 273.430588 250.862098 
L 275.4 262.315904 
L 277.369412 272.963331 
L 279.338824 282.604552 
L 281.308235 291.026789 
L 283.277647 298.004013 
L 285.247059 303.29663 
L 287.216471 306.651174 
L 289.185882 307.8 
L 291.155294 306.460974 
L 293.124706 302.337165 
L 295.094118 295.11654 
L 297.063529 284.471651 
L 299.032941 270.059328 
L 301.002353 251.520374 
L 302.971765 228.479252 
L 304.941176 200.543781 
" style="fill:none;stroke:#0000ff;stroke-dasharray:1.5,2.475;stroke-dashoffset:0;stroke-width:1.5;"/>
   </g>
   <g id="line2d_28">
    <defs>
     <path d="M -3 0 
L 3 0 
M 0 3 
L 0 -3 
" id="m745dc2fb41" style="stroke:#0000ff;"/>
    </defs>
    <g clip-path="url(#p29a03e24b3)">
     <use style="fill:#0000ff;stroke:#0000ff;" x="108" xlink:href="#m745dc2fb41" y="118.341501"/>
     <use style="fill:#0000ff;stroke:#0000ff;" x="127.694118" xlink:href="#m745dc2fb41" y="200.543781"/>
     <use style="fill:#0000ff;stroke:#0000ff;" x="147.388235" xlink:href="#m745dc2fb41" y="274.525832"/>
     <use style="fill:#0000ff;stroke:#0000ff;" x="167.082353" xlink:href="#m745dc2fb41" y="272.470775"/>
     <use style="fill:#0000ff;stroke:#0000ff;" x="186.776471" xlink:href="#m745dc2fb41" y="200.543781"/>
     <use style="fill:#0000ff;stroke:#0000ff;" x="206.470588" xlink:href="#m745dc2fb41" y="108.066216"/>
     <use style="fill:#0000ff;stroke:#0000ff;" x="226.164706" xlink:href="#m745dc2fb41" y="56.689791"/>
     <use style="fill:#0000ff;stroke:#0000ff;" x="245.858824" xlink:href="#m745dc2fb41" y="89.570703"/>
     <use style="fill:#0000ff;stroke:#0000ff;" x="265.552941" xlink:href="#m745dc2fb41" y="200.543781"/>
     <use style="fill:#0000ff;stroke:#0000ff;" x="285.247059" xlink:href="#m745dc2fb41" y="303.29663"/>
     <use style="fill:#0000ff;stroke:#0000ff;" x="304.941176" xlink:href="#m745dc2fb41" y="200.543781"/>
    </g>
   </g>
   <g id="patch_3">
    <path d="M 108 320.4 
L 108 43.2 
" style="fill:none;stroke:#000000;stroke-linecap:square;stroke-linejoin:miter;stroke-width:0.8;"/>
   </g>
   <g id="patch_4">
    <path d="M 304.941176 320.4 
L 304.941176 43.2 
" style="fill:none;stroke:#000000;stroke-linecap:square;stroke-linejoin:miter;stroke-width:0.8;"/>
   </g>
   <g id="patch_5">
    <path d="M 108 320.4 
L 304.941176 320.4 
" style="fill:none;stroke:#000000;stroke-linecap:square;stroke-linejoin:miter;stroke-width:0.8;"/>
   </g>
   <g id="patch_6">
    <path d="M 108 43.2 
L 304.941176 43.2 
" style="fill:none;stroke:#000000;stroke-linecap:square;stroke-linejoin:miter;stroke-width:0.8;"/>
   </g>
   <g id="text_14">
    <!-- Student-ID: 100 -->
    <defs>
     <path d="M 53.515625 70.515625 
L 53.515625 60.890625 
Q 47.90625 63.578125 42.921875 64.890625 
Q 37.9375 66.21875 33.296875 66.21875 
Q 25.25 66.21875 20.875 63.09375 
Q 16.5 59.96875 16.5 54.203125 
Q 16.5 49.359375 19.40625 46.890625 
Q 22.3125 44.4375 30.421875 42.921875 
L 36.375 41.703125 
Q 47.40625 39.59375 52.65625 34.296875 
Q 57.90625 29 57.90625 20.125 
Q 57.90625 9.515625 50.796875 4.046875 
Q 43.703125 -1.421875 29.984375 -1.421875 
Q 24.8125 -1.421875 18.96875 -0.25 
Q 13.140625 0.921875 6.890625 3.21875 
L 6.890625 13.375 
Q 12.890625 10.015625 18.65625 8.296875 
Q 24.421875 6.59375 29.984375 6.59375 
Q 38.421875 6.59375 43.015625 9.90625 
Q 47.609375 13.234375 47.609375 19.390625 
Q 47.609375 24.75 44.3125 27.78125 
Q 41.015625 30.8125 33.5 32.328125 
L 27.484375 33.5 
Q 16.453125 35.6875 11.515625 40.375 
Q 6.59375 45.0625 6.59375 53.421875 
Q 6.59375 63.09375 13.40625 68.65625 
Q 20.21875 74.21875 32.171875 74.21875 
Q 37.3125 74.21875 42.625 73.28125 
Q 47.953125 72.359375 53.515625 70.515625 
z
" id="DejaVuSans-83"/>
     <path d="M 18.3125 70.21875 
L 18.3125 54.6875 
L 36.8125 54.6875 
L 36.8125 47.703125 
L 18.3125 47.703125 
L 18.3125 18.015625 
Q 18.3125 11.328125 20.140625 9.421875 
Q 21.96875 7.515625 27.59375 7.515625 
L 36.8125 7.515625 
L 36.8125 0 
L 27.59375 0 
Q 17.1875 0 13.234375 3.875 
Q 9.28125 7.765625 9.28125 18.015625 
L 9.28125 47.703125 
L 2.6875 47.703125 
L 2.6875 54.6875 
L 9.28125 54.6875 
L 9.28125 70.21875 
z
" id="DejaVuSans-116"/>
     <path d="M 8.5 21.578125 
L 8.5 54.6875 
L 17.484375 54.6875 
L 17.484375 21.921875 
Q 17.484375 14.15625 20.5 10.265625 
Q 23.53125 6.390625 29.59375 6.390625 
Q 36.859375 6.390625 41.078125 11.03125 
Q 45.3125 15.671875 45.3125 23.6875 
L 45.3125 54.6875 
L 54.296875 54.6875 
L 54.296875 0 
L 45.3125 0 
L 45.3125 8.40625 
Q 42.046875 3.421875 37.71875 1 
Q 33.40625 -1.421875 27.6875 -1.421875 
Q 18.265625 -1.421875 13.375 4.4375 
Q 8.5 10.296875 8.5 21.578125 
z
M 31.109375 56 
z
" id="DejaVuSans-117"/>
     <path d="M 45.40625 46.390625 
L 45.40625 75.984375 
L 54.390625 75.984375 
L 54.390625 0 
L 45.40625 0 
L 45.40625 8.203125 
Q 42.578125 3.328125 38.25 0.953125 
Q 33.9375 -1.421875 27.875 -1.421875 
Q 17.96875 -1.421875 11.734375 6.484375 
Q 5.515625 14.40625 5.515625 27.296875 
Q 5.515625 40.1875 11.734375 48.09375 
Q 17.96875 56 27.875 56 
Q 33.9375 56 38.25 53.625 
Q 42.578125 51.265625 45.40625 46.390625 
z
M 14.796875 27.296875 
Q 14.796875 17.390625 18.875 11.75 
Q 22.953125 6.109375 30.078125 6.109375 
Q 37.203125 6.109375 41.296875 11.75 
Q 45.40625 17.390625 45.40625 27.296875 
Q 45.40625 37.203125 41.296875 42.84375 
Q 37.203125 48.484375 30.078125 48.484375 
Q 22.953125 48.484375 18.875 42.84375 
Q 14.796875 37.203125 14.796875 27.296875 
z
" id="DejaVuSans-100"/>
     <path d="M 56.203125 29.59375 
L 56.203125 25.203125 
L 14.890625 25.203125 
Q 15.484375 15.921875 20.484375 11.0625 
Q 25.484375 6.203125 34.421875 6.203125 
Q 39.59375 6.203125 44.453125 7.46875 
Q 49.3125 8.734375 54.109375 11.28125 
L 54.109375 2.78125 
Q 49.265625 0.734375 44.1875 -0.34375 
Q 39.109375 -1.421875 33.890625 -1.421875 
Q 20.796875 -1.421875 13.15625 6.1875 
Q 5.515625 13.8125 5.515625 26.8125 
Q 5.515625 40.234375 12.765625 48.109375 
Q 20.015625 56 32.328125 56 
Q 43.359375 56 49.78125 48.890625 
Q 56.203125 41.796875 56.203125 29.59375 
z
M 47.21875 32.234375 
Q 47.125 39.59375 43.09375 43.984375 
Q 39.0625 48.390625 32.421875 48.390625 
Q 24.90625 48.390625 20.390625 44.140625 
Q 15.875 39.890625 15.1875 32.171875 
z
" id="DejaVuSans-101"/>
     <path d="M 54.890625 33.015625 
L 54.890625 0 
L 45.90625 0 
L 45.90625 32.71875 
Q 45.90625 40.484375 42.875 44.328125 
Q 39.84375 48.1875 33.796875 48.1875 
Q 26.515625 48.1875 22.3125 43.546875 
Q 18.109375 38.921875 18.109375 30.90625 
L 18.109375 0 
L 9.078125 0 
L 9.078125 54.6875 
L 18.109375 54.6875 
L 18.109375 46.1875 
Q 21.34375 51.125 25.703125 53.5625 
Q 30.078125 56 35.796875 56 
Q 45.21875 56 50.046875 50.171875 
Q 54.890625 44.34375 54.890625 33.015625 
z
" id="DejaVuSans-110"/>
     <path d="M 4.890625 31.390625 
L 31.203125 31.390625 
L 31.203125 23.390625 
L 4.890625 23.390625 
z
" id="DejaVuSans-45"/>
     <path d="M 9.8125 72.90625 
L 19.671875 72.90625 
L 19.671875 0 
L 9.8125 0 
z
" id="DejaVuSans-73"/>
     <path d="M 19.671875 64.796875 
L 19.671875 8.109375 
L 31.59375 8.109375 
Q 46.6875 8.109375 53.6875 14.9375 
Q 60.6875 21.78125 60.6875 36.53125 
Q 60.6875 51.171875 53.6875 57.984375 
Q 46.6875 64.796875 31.59375 64.796875 
z
M 9.8125 72.90625 
L 30.078125 72.90625 
Q 51.265625 72.90625 61.171875 64.09375 
Q 71.09375 55.28125 71.09375 36.53125 
Q 71.09375 17.671875 61.125 8.828125 
Q 51.171875 0 30.078125 0 
L 9.8125 0 
z
" id="DejaVuSans-68"/>
     <path d="M 11.71875 12.40625 
L 22.015625 12.40625 
L 22.015625 0 
L 11.71875 0 
z
M 11.71875 51.703125 
L 22.015625 51.703125 
L 22.015625 39.3125 
L 11.71875 39.3125 
z
" id="DejaVuSans-58"/>
     <path id="DejaVuSans-32"/>
    </defs>
    <g transform="translate(158.915901 37.2)scale(0.12 -0.12)">
     <use xlink:href="#DejaVuSans-83"/>
     <use x="63.476562" xlink:href="#DejaVuSans-116"/>
     <use x="102.685547" xlink:href="#DejaVuSans-117"/>
     <use x="166.064453" xlink:href="#DejaVuSans-100"/>
     <use x="229.541016" xlink:href="#DejaVuSans-101"/>
     <use x="291.064453" xlink:href="#DejaVuSans-110"/>
     <use x="354.443359" xlink:href="#DejaVuSans-116"/>
     <use x="393.652344" xlink:href="#DejaVuSans-45"/>
     <use x="429.736328" xlink:href="#DejaVuSans-73"/>
     <use x="459.228516" xlink:href="#DejaVuSans-68"/>
     <use x="536.230469" xlink:href="#DejaVuSans-58"/>
     <use x="569.921875" xlink:href="#DejaVuSans-32"/>
     <use x="601.708984" xlink:href="#DejaVuSans-49"/>
     <use x="665.332031" xlink:href="#DejaVuSans-48"/>
     <use x="728.955078" xlink:href="#DejaVuSans-48"/>
    </g>
   </g>
   <g id="legend_1">
    <g id="patch_7">
     <path d="M 115 80.55625 
L 212.0125 80.55625 
Q 214.0125 80.55625 214.0125 78.55625 
L 214.0125 50.2 
Q 214.0125 48.2 212.0125 48.2 
L 115 48.2 
Q 113 48.2 113 50.2 
L 113 78.55625 
Q 113 80.55625 115 80.55625 
z
" style="fill:#ffffff;opacity:0.8;stroke:#cccccc;stroke-linejoin:miter;"/>
    </g>
    <g id="line2d_29">
     <path d="M 117 56.298437 
L 137 56.298437 
" style="fill:none;stroke:#0000ff;stroke-dasharray:1.5,2.475;stroke-dashoffset:0;stroke-width:1.5;"/>
    </g>
    <g id="line2d_30"/>
    <g id="text_15">
     <!-- Polynomial -->
     <defs>
      <path d="M 19.671875 64.796875 
L 19.671875 37.40625 
L 32.078125 37.40625 
Q 38.96875 37.40625 42.71875 40.96875 
Q 46.484375 44.53125 46.484375 51.125 
Q 46.484375 57.671875 42.71875 61.234375 
Q 38.96875 64.796875 32.078125 64.796875 
z
M 9.8125 72.90625 
L 32.078125 72.90625 
Q 44.34375 72.90625 50.609375 67.359375 
Q 56.890625 61.8125 56.890625 51.125 
Q 56.890625 40.328125 50.609375 34.8125 
Q 44.34375 29.296875 32.078125 29.296875 
L 19.671875 29.296875 
L 19.671875 0 
L 9.8125 0 
z
" id="DejaVuSans-80"/>
      <path d="M 30.609375 48.390625 
Q 23.390625 48.390625 19.1875 42.75 
Q 14.984375 37.109375 14.984375 27.296875 
Q 14.984375 17.484375 19.15625 11.84375 
Q 23.34375 6.203125 30.609375 6.203125 
Q 37.796875 6.203125 41.984375 11.859375 
Q 46.1875 17.53125 46.1875 27.296875 
Q 46.1875 37.015625 41.984375 42.703125 
Q 37.796875 48.390625 30.609375 48.390625 
z
M 30.609375 56 
Q 42.328125 56 49.015625 48.375 
Q 55.71875 40.765625 55.71875 27.296875 
Q 55.71875 13.875 49.015625 6.21875 
Q 42.328125 -1.421875 30.609375 -1.421875 
Q 18.84375 -1.421875 12.171875 6.21875 
Q 5.515625 13.875 5.515625 27.296875 
Q 5.515625 40.765625 12.171875 48.375 
Q 18.84375 56 30.609375 56 
z
" id="DejaVuSans-111"/>
      <path d="M 9.421875 75.984375 
L 18.40625 75.984375 
L 18.40625 0 
L 9.421875 0 
z
" id="DejaVuSans-108"/>
      <path d="M 32.171875 -5.078125 
Q 28.375 -14.84375 24.75 -17.8125 
Q 21.140625 -20.796875 15.09375 -20.796875 
L 7.90625 -20.796875 
L 7.90625 -13.28125 
L 13.1875 -13.28125 
Q 16.890625 -13.28125 18.9375 -11.515625 
Q 21 -9.765625 23.484375 -3.21875 
L 25.09375 0.875 
L 2.984375 54.6875 
L 12.5 54.6875 
L 29.59375 11.921875 
L 46.6875 54.6875 
L 56.203125 54.6875 
z
" id="DejaVuSans-121"/>
      <path d="M 52 44.1875 
Q 55.375 50.25 60.0625 53.125 
Q 64.75 56 71.09375 56 
Q 79.640625 56 84.28125 50.015625 
Q 88.921875 44.046875 88.921875 33.015625 
L 88.921875 0 
L 79.890625 0 
L 79.890625 32.71875 
Q 79.890625 40.578125 77.09375 44.375 
Q 74.3125 48.1875 68.609375 48.1875 
Q 61.625 48.1875 57.5625 43.546875 
Q 53.515625 38.921875 53.515625 30.90625 
L 53.515625 0 
L 44.484375 0 
L 44.484375 32.71875 
Q 44.484375 40.625 41.703125 44.40625 
Q 38.921875 48.1875 33.109375 48.1875 
Q 26.21875 48.1875 22.15625 43.53125 
Q 18.109375 38.875 18.109375 30.90625 
L 18.109375 0 
L 9.078125 0 
L 9.078125 54.6875 
L 18.109375 54.6875 
L 18.109375 46.1875 
Q 21.1875 51.21875 25.484375 53.609375 
Q 29.78125 56 35.6875 56 
Q 41.65625 56 45.828125 52.96875 
Q 50 49.953125 52 44.1875 
z
" id="DejaVuSans-109"/>
      <path d="M 9.421875 54.6875 
L 18.40625 54.6875 
L 18.40625 0 
L 9.421875 0 
z
M 9.421875 75.984375 
L 18.40625 75.984375 
L 18.40625 64.59375 
L 9.421875 64.59375 
z
" id="DejaVuSans-105"/>
      <path d="M 34.28125 27.484375 
Q 23.390625 27.484375 19.1875 25 
Q 14.984375 22.515625 14.984375 16.5 
Q 14.984375 11.71875 18.140625 8.90625 
Q 21.296875 6.109375 26.703125 6.109375 
Q 34.1875 6.109375 38.703125 11.40625 
Q 43.21875 16.703125 43.21875 25.484375 
L 43.21875 27.484375 
z
M 52.203125 31.203125 
L 52.203125 0 
L 43.21875 0 
L 43.21875 8.296875 
Q 40.140625 3.328125 35.546875 0.953125 
Q 30.953125 -1.421875 24.3125 -1.421875 
Q 15.921875 -1.421875 10.953125 3.296875 
Q 6 8.015625 6 15.921875 
Q 6 25.140625 12.171875 29.828125 
Q 18.359375 34.515625 30.609375 34.515625 
L 43.21875 34.515625 
L 43.21875 35.40625 
Q 43.21875 41.609375 39.140625 45 
Q 35.0625 48.390625 27.6875 48.390625 
Q 23 48.390625 18.546875 47.265625 
Q 14.109375 46.140625 10.015625 43.890625 
L 10.015625 52.203125 
Q 14.9375 54.109375 19.578125 55.046875 
Q 24.21875 56 28.609375 56 
Q 40.484375 56 46.34375 49.84375 
Q 52.203125 43.703125 52.203125 31.203125 
z
" id="DejaVuSans-97"/>
     </defs>
     <g transform="translate(145 59.798437)scale(0.1 -0.1)">
      <use xlink:href="#DejaVuSans-80"/>
      <use x="56.677734" xlink:href="#DejaVuSans-111"/>
      <use x="117.859375" xlink:href="#DejaVuSans-108"/>
      <use x="145.642578" xlink:href="#DejaVuSans-121"/>
      <use x="204.822266" xlink:href="#DejaVuSans-110"/>
      <use x="268.201172" xlink:href="#DejaVuSans-111"/>
      <use x="329.382812" xlink:href="#DejaVuSans-109"/>
      <use x="426.794922" xlink:href="#DejaVuSans-105"/>
      <use x="454.578125" xlink:href="#DejaVuSans-97"/>
      <use x="515.857422" xlink:href="#DejaVuSans-108"/>
     </g>
    </g>
    <g id="line2d_31"/>
    <g id="line2d_32">
     <g>
      <use style="fill:#0000ff;stroke:#0000ff;" x="127" xlink:href="#m745dc2fb41" y="70.976562"/>
     </g>
    </g>
    <g id="text_16">
     <!-- Grid function -->
     <defs>
      <path d="M 59.515625 10.40625 
L 59.515625 29.984375 
L 43.40625 29.984375 
L 43.40625 38.09375 
L 69.28125 38.09375 
L 69.28125 6.78125 
Q 63.578125 2.734375 56.6875 0.65625 
Q 49.8125 -1.421875 42 -1.421875 
Q 24.90625 -1.421875 15.25 8.5625 
Q 5.609375 18.5625 5.609375 36.375 
Q 5.609375 54.25 15.25 64.234375 
Q 24.90625 74.21875 42 74.21875 
Q 49.125 74.21875 55.546875 72.453125 
Q 61.96875 70.703125 67.390625 67.28125 
L 67.390625 56.78125 
Q 61.921875 61.421875 55.765625 63.765625 
Q 49.609375 66.109375 42.828125 66.109375 
Q 29.4375 66.109375 22.71875 58.640625 
Q 16.015625 51.171875 16.015625 36.375 
Q 16.015625 21.625 22.71875 14.15625 
Q 29.4375 6.6875 42.828125 6.6875 
Q 48.046875 6.6875 52.140625 7.59375 
Q 56.25 8.5 59.515625 10.40625 
z
" id="DejaVuSans-71"/>
      <path d="M 41.109375 46.296875 
Q 39.59375 47.171875 37.8125 47.578125 
Q 36.03125 48 33.890625 48 
Q 26.265625 48 22.1875 43.046875 
Q 18.109375 38.09375 18.109375 28.8125 
L 18.109375 0 
L 9.078125 0 
L 9.078125 54.6875 
L 18.109375 54.6875 
L 18.109375 46.1875 
Q 20.953125 51.171875 25.484375 53.578125 
Q 30.03125 56 36.53125 56 
Q 37.453125 56 38.578125 55.875 
Q 39.703125 55.765625 41.0625 55.515625 
z
" id="DejaVuSans-114"/>
      <path d="M 37.109375 75.984375 
L 37.109375 68.5 
L 28.515625 68.5 
Q 23.6875 68.5 21.796875 66.546875 
Q 19.921875 64.59375 19.921875 59.515625 
L 19.921875 54.6875 
L 34.71875 54.6875 
L 34.71875 47.703125 
L 19.921875 47.703125 
L 19.921875 0 
L 10.890625 0 
L 10.890625 47.703125 
L 2.296875 47.703125 
L 2.296875 54.6875 
L 10.890625 54.6875 
L 10.890625 58.5 
Q 10.890625 67.625 15.140625 71.796875 
Q 19.390625 75.984375 28.609375 75.984375 
z
" id="DejaVuSans-102"/>
      <path d="M 48.78125 52.59375 
L 48.78125 44.1875 
Q 44.96875 46.296875 41.140625 47.34375 
Q 37.3125 48.390625 33.40625 48.390625 
Q 24.65625 48.390625 19.8125 42.84375 
Q 14.984375 37.3125 14.984375 27.296875 
Q 14.984375 17.28125 19.8125 11.734375 
Q 24.65625 6.203125 33.40625 6.203125 
Q 37.3125 6.203125 41.140625 7.25 
Q 44.96875 8.296875 48.78125 10.40625 
L 48.78125 2.09375 
Q 45.015625 0.34375 40.984375 -0.53125 
Q 36.96875 -1.421875 32.421875 -1.421875 
Q 20.0625 -1.421875 12.78125 6.34375 
Q 5.515625 14.109375 5.515625 27.296875 
Q 5.515625 40.671875 12.859375 48.328125 
Q 20.21875 56 33.015625 56 
Q 37.15625 56 41.109375 55.140625 
Q 45.0625 54.296875 48.78125 52.59375 
z
" id="DejaVuSans-99"/>
     </defs>
     <g transform="translate(145 74.476562)scale(0.1 -0.1)">
      <use xlink:href="#DejaVuSans-71"/>
      <use x="77.490234" xlink:href="#DejaVuSans-114"/>
      <use x="118.603516" xlink:href="#DejaVuSans-105"/>
      <use x="146.386719" xlink:href="#DejaVuSans-100"/>
      <use x="209.863281" xlink:href="#DejaVuSans-32"/>
      <use x="241.650391" xlink:href="#DejaVuSans-102"/>
      <use x="276.855469" xlink:href="#DejaVuSans-117"/>
      <use x="340.234375" xlink:href="#DejaVuSans-110"/>
      <use x="403.613281" xlink:href="#DejaVuSans-99"/>
      <use x="458.59375" xlink:href="#DejaVuSans-116"/>
      <use x="497.802734" xlink:href="#DejaVuSans-105"/>
      <use x="525.585938" xlink:href="#DejaVuSans-111"/>
      <use x="586.767578" xlink:href="#DejaVuSans-110"/>
     </g>
    </g>
   </g>
  </g>
  <g id="axes_2">
   <g id="patch_8">
    <path d="M 344.329412 320.4 
L 541.270588 320.4 
L 541.270588 43.2 
L 344.329412 43.2 
z
" style="fill:#ffffff;"/>
   </g>
   <g id="matplotlib.axis_3">
    <g id="xtick_6">
     <g id="line2d_33">
      <path clip-path="url(#p593d378768)" d="M 364.023529 320.4 
L 364.023529 43.2 
" style="fill:none;stroke:#b0b0b0;stroke-linecap:square;stroke-width:0.8;"/>
     </g>
     <g id="line2d_34">
      <g>
       <use style="stroke:#000000;stroke-width:0.8;" x="364.023529" xlink:href="#me3bfcf2c25" y="320.4"/>
      </g>
     </g>
     <g id="text_17">
      <!-- −4 -->
      <g transform="translate(356.652436 334.998438)scale(0.1 -0.1)">
       <use xlink:href="#DejaVuSans-8722"/>
       <use x="83.789062" xlink:href="#DejaVuSans-52"/>
      </g>
     </g>
    </g>
    <g id="xtick_7">
     <g id="line2d_35">
      <path clip-path="url(#p593d378768)" d="M 403.411765 320.4 
L 403.411765 43.2 
" style="fill:none;stroke:#b0b0b0;stroke-linecap:square;stroke-width:0.8;"/>
     </g>
     <g id="line2d_36">
      <g>
       <use style="stroke:#000000;stroke-width:0.8;" x="403.411765" xlink:href="#me3bfcf2c25" y="320.4"/>
      </g>
     </g>
     <g id="text_18">
      <!-- −2 -->
      <g transform="translate(396.040671 334.998438)scale(0.1 -0.1)">
       <use xlink:href="#DejaVuSans-8722"/>
       <use x="83.789062" xlink:href="#DejaVuSans-50"/>
      </g>
     </g>
    </g>
    <g id="xtick_8">
     <g id="line2d_37">
      <path clip-path="url(#p593d378768)" d="M 442.8 320.4 
L 442.8 43.2 
" style="fill:none;stroke:#b0b0b0;stroke-linecap:square;stroke-width:0.8;"/>
     </g>
     <g id="line2d_38">
      <g>
       <use style="stroke:#000000;stroke-width:0.8;" x="442.8" xlink:href="#me3bfcf2c25" y="320.4"/>
      </g>
     </g>
     <g id="text_19">
      <!-- 0 -->
      <g transform="translate(439.61875 334.998438)scale(0.1 -0.1)">
       <use xlink:href="#DejaVuSans-48"/>
      </g>
     </g>
    </g>
    <g id="xtick_9">
     <g id="line2d_39">
      <path clip-path="url(#p593d378768)" d="M 482.188235 320.4 
L 482.188235 43.2 
" style="fill:none;stroke:#b0b0b0;stroke-linecap:square;stroke-width:0.8;"/>
     </g>
     <g id="line2d_40">
      <g>
       <use style="stroke:#000000;stroke-width:0.8;" x="482.188235" xlink:href="#me3bfcf2c25" y="320.4"/>
      </g>
     </g>
     <g id="text_20">
      <!-- 2 -->
      <g transform="translate(479.006985 334.998438)scale(0.1 -0.1)">
       <use xlink:href="#DejaVuSans-50"/>
      </g>
     </g>
    </g>
    <g id="xtick_10">
     <g id="line2d_41">
      <path clip-path="url(#p593d378768)" d="M 521.576471 320.4 
L 521.576471 43.2 
" style="fill:none;stroke:#b0b0b0;stroke-linecap:square;stroke-width:0.8;"/>
     </g>
     <g id="line2d_42">
      <g>
       <use style="stroke:#000000;stroke-width:0.8;" x="521.576471" xlink:href="#me3bfcf2c25" y="320.4"/>
      </g>
     </g>
     <g id="text_21">
      <!-- 4 -->
      <g transform="translate(518.395221 334.998438)scale(0.1 -0.1)">
       <use xlink:href="#DejaVuSans-52"/>
      </g>
     </g>
    </g>
    <g id="text_22">
     <!-- Numerical grid coordinate x -->
     <defs>
      <path d="M 9.8125 72.90625 
L 23.09375 72.90625 
L 55.421875 11.921875 
L 55.421875 72.90625 
L 64.984375 72.90625 
L 64.984375 0 
L 51.703125 0 
L 19.390625 60.984375 
L 19.390625 0 
L 9.8125 0 
z
" id="DejaVuSans-78"/>
      <path d="M 45.40625 27.984375 
Q 45.40625 37.75 41.375 43.109375 
Q 37.359375 48.484375 30.078125 48.484375 
Q 22.859375 48.484375 18.828125 43.109375 
Q 14.796875 37.75 14.796875 27.984375 
Q 14.796875 18.265625 18.828125 12.890625 
Q 22.859375 7.515625 30.078125 7.515625 
Q 37.359375 7.515625 41.375 12.890625 
Q 45.40625 18.265625 45.40625 27.984375 
z
M 54.390625 6.78125 
Q 54.390625 -7.171875 48.1875 -13.984375 
Q 42 -20.796875 29.203125 -20.796875 
Q 24.46875 -20.796875 20.265625 -20.09375 
Q 16.0625 -19.390625 12.109375 -17.921875 
L 12.109375 -9.1875 
Q 16.0625 -11.328125 19.921875 -12.34375 
Q 23.78125 -13.375 27.78125 -13.375 
Q 36.625 -13.375 41.015625 -8.765625 
Q 45.40625 -4.15625 45.40625 5.171875 
L 45.40625 9.625 
Q 42.625 4.78125 38.28125 2.390625 
Q 33.9375 0 27.875 0 
Q 17.828125 0 11.671875 7.65625 
Q 5.515625 15.328125 5.515625 27.984375 
Q 5.515625 40.671875 11.671875 48.328125 
Q 17.828125 56 27.875 56 
Q 33.9375 56 38.28125 53.609375 
Q 42.625 51.21875 45.40625 46.390625 
L 45.40625 54.6875 
L 54.390625 54.6875 
z
" id="DejaVuSans-103"/>
      <path d="M 54.890625 54.6875 
L 35.109375 28.078125 
L 55.90625 0 
L 45.3125 0 
L 29.390625 21.484375 
L 13.484375 0 
L 2.875 0 
L 24.125 28.609375 
L 4.6875 54.6875 
L 15.28125 54.6875 
L 29.78125 35.203125 
L 44.28125 54.6875 
z
" id="DejaVuSans-120"/>
     </defs>
     <g transform="translate(373.108594 348.676562)scale(0.1 -0.1)">
      <use xlink:href="#DejaVuSans-78"/>
      <use x="74.804688" xlink:href="#DejaVuSans-117"/>
      <use x="138.183594" xlink:href="#DejaVuSans-109"/>
      <use x="235.595703" xlink:href="#DejaVuSans-101"/>
      <use x="297.119141" xlink:href="#DejaVuSans-114"/>
      <use x="338.232422" xlink:href="#DejaVuSans-105"/>
      <use x="366.015625" xlink:href="#DejaVuSans-99"/>
      <use x="420.996094" xlink:href="#DejaVuSans-97"/>
      <use x="482.275391" xlink:href="#DejaVuSans-108"/>
      <use x="510.058594" xlink:href="#DejaVuSans-32"/>
      <use x="541.845703" xlink:href="#DejaVuSans-103"/>
      <use x="605.322266" xlink:href="#DejaVuSans-114"/>
      <use x="646.435547" xlink:href="#DejaVuSans-105"/>
      <use x="674.21875" xlink:href="#DejaVuSans-100"/>
      <use x="737.695312" xlink:href="#DejaVuSans-32"/>
      <use x="769.482422" xlink:href="#DejaVuSans-99"/>
      <use x="824.462891" xlink:href="#DejaVuSans-111"/>
      <use x="885.644531" xlink:href="#DejaVuSans-111"/>
      <use x="946.826172" xlink:href="#DejaVuSans-114"/>
      <use x="986.189453" xlink:href="#DejaVuSans-100"/>
      <use x="1049.666016" xlink:href="#DejaVuSans-105"/>
      <use x="1077.449219" xlink:href="#DejaVuSans-110"/>
      <use x="1140.828125" xlink:href="#DejaVuSans-97"/>
      <use x="1202.107422" xlink:href="#DejaVuSans-116"/>
      <use x="1241.316406" xlink:href="#DejaVuSans-101"/>
      <use x="1302.839844" xlink:href="#DejaVuSans-32"/>
      <use x="1334.626953" xlink:href="#DejaVuSans-120"/>
     </g>
    </g>
   </g>
   <g id="matplotlib.axis_4">
    <g id="ytick_9">
     <g id="line2d_43">
      <path clip-path="url(#p593d378768)" d="M 344.329412 307.204255 
L 541.270588 307.204255 
" style="fill:none;stroke:#b0b0b0;stroke-linecap:square;stroke-width:0.8;"/>
     </g>
     <g id="line2d_44">
      <g>
       <use style="stroke:#000000;stroke-width:0.8;" x="344.329412" xlink:href="#mc9d184c6ba" y="307.204255"/>
      </g>
     </g>
     <g id="text_23">
      <!-- −200 -->
      <g transform="translate(309.862224 311.003474)scale(0.1 -0.1)">
       <use xlink:href="#DejaVuSans-8722"/>
       <use x="83.789062" xlink:href="#DejaVuSans-50"/>
       <use x="147.412109" xlink:href="#DejaVuSans-48"/>
       <use x="211.035156" xlink:href="#DejaVuSans-48"/>
      </g>
     </g>
    </g>
    <g id="ytick_10">
     <g id="line2d_45">
      <path clip-path="url(#p593d378768)" d="M 344.329412 269.970213 
L 541.270588 269.970213 
" style="fill:none;stroke:#b0b0b0;stroke-linecap:square;stroke-width:0.8;"/>
     </g>
     <g id="line2d_46">
      <g>
       <use style="stroke:#000000;stroke-width:0.8;" x="344.329412" xlink:href="#mc9d184c6ba" y="269.970213"/>
      </g>
     </g>
     <g id="text_24">
      <!-- −100 -->
      <g transform="translate(309.862224 273.769432)scale(0.1 -0.1)">
       <use xlink:href="#DejaVuSans-8722"/>
       <use x="83.789062" xlink:href="#DejaVuSans-49"/>
       <use x="147.412109" xlink:href="#DejaVuSans-48"/>
       <use x="211.035156" xlink:href="#DejaVuSans-48"/>
      </g>
     </g>
    </g>
    <g id="ytick_11">
     <g id="line2d_47">
      <path clip-path="url(#p593d378768)" d="M 344.329412 232.73617 
L 541.270588 232.73617 
" style="fill:none;stroke:#b0b0b0;stroke-linecap:square;stroke-width:0.8;"/>
     </g>
     <g id="line2d_48">
      <g>
       <use style="stroke:#000000;stroke-width:0.8;" x="344.329412" xlink:href="#mc9d184c6ba" y="232.73617"/>
      </g>
     </g>
     <g id="text_25">
      <!-- 0 -->
      <g transform="translate(330.966912 236.535389)scale(0.1 -0.1)">
       <use xlink:href="#DejaVuSans-48"/>
      </g>
     </g>
    </g>
    <g id="ytick_12">
     <g id="line2d_49">
      <path clip-path="url(#p593d378768)" d="M 344.329412 195.502128 
L 541.270588 195.502128 
" style="fill:none;stroke:#b0b0b0;stroke-linecap:square;stroke-width:0.8;"/>
     </g>
     <g id="line2d_50">
      <g>
       <use style="stroke:#000000;stroke-width:0.8;" x="344.329412" xlink:href="#mc9d184c6ba" y="195.502128"/>
      </g>
     </g>
     <g id="text_26">
      <!-- 100 -->
      <g transform="translate(318.241912 199.301346)scale(0.1 -0.1)">
       <use xlink:href="#DejaVuSans-49"/>
       <use x="63.623047" xlink:href="#DejaVuSans-48"/>
       <use x="127.246094" xlink:href="#DejaVuSans-48"/>
      </g>
     </g>
    </g>
    <g id="ytick_13">
     <g id="line2d_51">
      <path clip-path="url(#p593d378768)" d="M 344.329412 158.268085 
L 541.270588 158.268085 
" style="fill:none;stroke:#b0b0b0;stroke-linecap:square;stroke-width:0.8;"/>
     </g>
     <g id="line2d_52">
      <g>
       <use style="stroke:#000000;stroke-width:0.8;" x="344.329412" xlink:href="#mc9d184c6ba" y="158.268085"/>
      </g>
     </g>
     <g id="text_27">
      <!-- 200 -->
      <g transform="translate(318.241912 162.067304)scale(0.1 -0.1)">
       <use xlink:href="#DejaVuSans-50"/>
       <use x="63.623047" xlink:href="#DejaVuSans-48"/>
       <use x="127.246094" xlink:href="#DejaVuSans-48"/>
      </g>
     </g>
    </g>
    <g id="ytick_14">
     <g id="line2d_53">
      <path clip-path="url(#p593d378768)" d="M 344.329412 121.034043 
L 541.270588 121.034043 
" style="fill:none;stroke:#b0b0b0;stroke-linecap:square;stroke-width:0.8;"/>
     </g>
     <g id="line2d_54">
      <g>
       <use style="stroke:#000000;stroke-width:0.8;" x="344.329412" xlink:href="#mc9d184c6ba" y="121.034043"/>
      </g>
     </g>
     <g id="text_28">
      <!-- 300 -->
      <defs>
       <path d="M 40.578125 39.3125 
Q 47.65625 37.796875 51.625 33 
Q 55.609375 28.21875 55.609375 21.1875 
Q 55.609375 10.40625 48.1875 4.484375 
Q 40.765625 -1.421875 27.09375 -1.421875 
Q 22.515625 -1.421875 17.65625 -0.515625 
Q 12.796875 0.390625 7.625 2.203125 
L 7.625 11.71875 
Q 11.71875 9.328125 16.59375 8.109375 
Q 21.484375 6.890625 26.8125 6.890625 
Q 36.078125 6.890625 40.9375 10.546875 
Q 45.796875 14.203125 45.796875 21.1875 
Q 45.796875 27.640625 41.28125 31.265625 
Q 36.765625 34.90625 28.71875 34.90625 
L 20.21875 34.90625 
L 20.21875 43.015625 
L 29.109375 43.015625 
Q 36.375 43.015625 40.234375 45.921875 
Q 44.09375 48.828125 44.09375 54.296875 
Q 44.09375 59.90625 40.109375 62.90625 
Q 36.140625 65.921875 28.71875 65.921875 
Q 24.65625 65.921875 20.015625 65.03125 
Q 15.375 64.15625 9.8125 62.3125 
L 9.8125 71.09375 
Q 15.4375 72.65625 20.34375 73.4375 
Q 25.25 74.21875 29.59375 74.21875 
Q 40.828125 74.21875 47.359375 69.109375 
Q 53.90625 64.015625 53.90625 55.328125 
Q 53.90625 49.265625 50.4375 45.09375 
Q 46.96875 40.921875 40.578125 39.3125 
z
" id="DejaVuSans-51"/>
      </defs>
      <g transform="translate(318.241912 124.833261)scale(0.1 -0.1)">
       <use xlink:href="#DejaVuSans-51"/>
       <use x="63.623047" xlink:href="#DejaVuSans-48"/>
       <use x="127.246094" xlink:href="#DejaVuSans-48"/>
      </g>
     </g>
    </g>
    <g id="ytick_15">
     <g id="line2d_55">
      <path clip-path="url(#p593d378768)" d="M 344.329412 83.8 
L 541.270588 83.8 
" style="fill:none;stroke:#b0b0b0;stroke-linecap:square;stroke-width:0.8;"/>
     </g>
     <g id="line2d_56">
      <g>
       <use style="stroke:#000000;stroke-width:0.8;" x="344.329412" xlink:href="#mc9d184c6ba" y="83.8"/>
      </g>
     </g>
     <g id="text_29">
      <!-- 400 -->
      <g transform="translate(318.241912 87.599219)scale(0.1 -0.1)">
       <use xlink:href="#DejaVuSans-52"/>
       <use x="63.623047" xlink:href="#DejaVuSans-48"/>
       <use x="127.246094" xlink:href="#DejaVuSans-48"/>
      </g>
     </g>
    </g>
    <g id="ytick_16">
     <g id="line2d_57">
      <path clip-path="url(#p593d378768)" d="M 344.329412 46.565957 
L 541.270588 46.565957 
" style="fill:none;stroke:#b0b0b0;stroke-linecap:square;stroke-width:0.8;"/>
     </g>
     <g id="line2d_58">
      <g>
       <use style="stroke:#000000;stroke-width:0.8;" x="344.329412" xlink:href="#mc9d184c6ba" y="46.565957"/>
      </g>
     </g>
     <g id="text_30">
      <!-- 500 -->
      <g transform="translate(318.241912 50.365176)scale(0.1 -0.1)">
       <use xlink:href="#DejaVuSans-53"/>
       <use x="63.623047" xlink:href="#DejaVuSans-48"/>
       <use x="127.246094" xlink:href="#DejaVuSans-48"/>
      </g>
     </g>
    </g>
   </g>
   <g id="line2d_59">
    <path clip-path="url(#p593d378768)" d="M 344.329412 255.374468 
L 346.298824 263.589415 
L 348.268235 270.532596 
L 350.237647 276.279968 
L 352.207059 280.905702 
L 354.176471 284.482181 
L 356.145882 287.08 
L 358.115294 288.767968 
L 360.084706 289.613106 
L 362.054118 289.680649 
L 364.023529 289.034043 
L 365.992941 287.734947 
L 367.962353 285.843234 
L 369.931765 283.416989 
L 371.901176 280.512511 
L 373.870588 277.184309 
L 375.84 273.485106 
L 377.809412 269.46584 
L 379.778824 265.17566 
L 381.748235 260.661926 
L 383.717647 255.970213 
L 385.687059 251.144309 
L 387.656471 246.226213 
L 389.625882 241.256138 
L 391.595294 236.272511 
L 393.564706 231.311968 
L 395.534118 226.409362 
L 397.503529 221.597755 
L 399.472941 216.908426 
L 401.442353 212.370862 
L 403.411765 208.012766 
L 405.381176 203.860053 
L 407.350588 199.936851 
L 409.32 196.2655 
L 411.289412 192.866553 
L 413.258824 189.758777 
L 415.228235 186.959149 
L 417.197647 184.482862 
L 419.167059 182.343319 
L 421.136471 180.552138 
L 423.105882 179.119149 
L 425.075294 178.052394 
L 427.044706 177.358128 
L 429.014118 177.040819 
L 430.983529 177.103149 
L 432.952941 177.546011 
L 434.922353 178.368511 
L 436.891765 179.567968 
L 438.861176 181.139915 
L 440.830588 183.078096 
L 442.8 185.374468 
L 444.769412 188.019202 
L 446.738824 191.000681 
L 448.708235 194.3055 
L 450.677647 197.918468 
L 452.647059 201.822606 
L 454.616471 205.999149 
L 456.585882 210.427543 
L 458.555294 215.085447 
L 460.524706 219.948734 
L 462.494118 224.991489 
L 464.463529 230.186011 
L 466.432941 235.502809 
L 468.402353 240.910606 
L 470.371765 246.37634 
L 472.341176 251.86516 
L 474.310588 257.340426 
L 476.28 262.763713 
L 478.249412 268.094809 
L 480.218824 273.291713 
L 482.188235 278.310638 
L 484.157647 283.106011 
L 486.127059 287.630468 
L 488.096471 291.834862 
L 490.065882 295.668255 
L 492.035294 299.077926 
L 494.004706 302.009362 
L 495.974118 304.406266 
L 497.943529 306.210553 
L 499.912941 307.362351 
L 501.882353 307.8 
L 503.851765 307.460053 
L 505.821176 306.277277 
L 507.790588 304.184649 
L 509.76 301.113362 
L 511.729412 296.992819 
L 513.698824 291.750638 
L 515.668235 285.312649 
L 517.637647 277.602894 
L 519.607059 268.543628 
L 521.576471 258.055319 
L 523.545882 246.056649 
L 525.515294 232.464511 
L 527.484706 217.194011 
L 529.454118 200.158468 
L 531.423529 181.269415 
L 533.392941 160.436596 
L 535.362353 137.567968 
L 537.331765 112.569702 
L 539.301176 85.346181 
L 541.270588 55.8 
" style="fill:none;stroke:#008000;stroke-dasharray:1.5,2.475;stroke-dashoffset:0;stroke-width:1.5;"/>
   </g>
   <g id="line2d_60">
    <defs>
     <path d="M -3 0 
L 3 0 
M 0 3 
L 0 -3 
" id="m214c6cf255" style="stroke:#008000;"/>
    </defs>
    <g clip-path="url(#p593d378768)">
     <use style="fill:#008000;stroke:#008000;" x="364.023529" xlink:href="#m214c6cf255" y="289.034043"/>
     <use style="fill:#008000;stroke:#008000;" x="383.717647" xlink:href="#m214c6cf255" y="255.970213"/>
     <use style="fill:#008000;stroke:#008000;" x="403.411765" xlink:href="#m214c6cf255" y="208.012766"/>
     <use style="fill:#008000;stroke:#008000;" x="423.105882" xlink:href="#m214c6cf255" y="179.119149"/>
     <use style="fill:#008000;stroke:#008000;" x="442.8" xlink:href="#m214c6cf255" y="185.374468"/>
     <use style="fill:#008000;stroke:#008000;" x="462.494118" xlink:href="#m214c6cf255" y="224.991489"/>
     <use style="fill:#008000;stroke:#008000;" x="482.188235" xlink:href="#m214c6cf255" y="278.310638"/>
     <use style="fill:#008000;stroke:#008000;" x="501.882353" xlink:href="#m214c6cf255" y="307.8"/>
     <use style="fill:#008000;stroke:#008000;" x="521.576471" xlink:href="#m214c6cf255" y="258.055319"/>
    </g>
   </g>
   <g id="line2d_61">
    <defs>
     <path d="M -3 3 
L 3 -3 
M -3 -3 
L 3 3 
" id="maa3316c365" style="stroke:#ff0000;"/>
    </defs>
    <g clip-path="url(#p593d378768)">
     <use style="fill:#ff0000;stroke:#ff0000;" x="364.023529" xlink:href="#maa3316c365" y="278.012766"/>
     <use style="fill:#ff0000;stroke:#ff0000;" x="383.717647" xlink:href="#maa3316c365" y="253.587234"/>
     <use style="fill:#ff0000;stroke:#ff0000;" x="403.411765" xlink:href="#maa3316c365" y="211.289362"/>
     <use style="fill:#ff0000;stroke:#ff0000;" x="423.105882" xlink:href="#maa3316c365" y="185.076596"/>
     <use style="fill:#ff0000;stroke:#ff0000;" x="442.8" xlink:href="#maa3316c365" y="191.034043"/>
     <use style="fill:#ff0000;stroke:#ff0000;" x="462.494118" xlink:href="#maa3316c365" y="227.374468"/>
     <use style="fill:#ff0000;stroke:#ff0000;" x="482.188235" xlink:href="#maa3316c365" y="274.438298"/>
     <use style="fill:#ff0000;stroke:#ff0000;" x="501.882353" xlink:href="#maa3316c365" y="294.693617"/>
     <use style="fill:#ff0000;stroke:#ff0000;" x="521.576471" xlink:href="#maa3316c365" y="232.73617"/>
    </g>
   </g>
   <g id="patch_9">
    <path d="M 344.329412 320.4 
L 344.329412 43.2 
" style="fill:none;stroke:#000000;stroke-linecap:square;stroke-linejoin:miter;stroke-width:0.8;"/>
   </g>
   <g id="patch_10">
    <path d="M 541.270588 320.4 
L 541.270588 43.2 
" style="fill:none;stroke:#000000;stroke-linecap:square;stroke-linejoin:miter;stroke-width:0.8;"/>
   </g>
   <g id="patch_11">
    <path d="M 344.329412 320.4 
L 541.270588 320.4 
" style="fill:none;stroke:#000000;stroke-linecap:square;stroke-linejoin:miter;stroke-width:0.8;"/>
   </g>
   <g id="patch_12">
    <path d="M 344.329412 43.2 
L 541.270588 43.2 
" style="fill:none;stroke:#000000;stroke-linecap:square;stroke-linejoin:miter;stroke-width:0.8;"/>
   </g>
   <g id="text_31">
    <!-- First derivative -->
    <defs>
     <path d="M 9.8125 72.90625 
L 51.703125 72.90625 
L 51.703125 64.59375 
L 19.671875 64.59375 
L 19.671875 43.109375 
L 48.578125 43.109375 
L 48.578125 34.8125 
L 19.671875 34.8125 
L 19.671875 0 
L 9.8125 0 
z
" id="DejaVuSans-70"/>
     <path d="M 44.28125 53.078125 
L 44.28125 44.578125 
Q 40.484375 46.53125 36.375 47.5 
Q 32.28125 48.484375 27.875 48.484375 
Q 21.1875 48.484375 17.84375 46.4375 
Q 14.5 44.390625 14.5 40.28125 
Q 14.5 37.15625 16.890625 35.375 
Q 19.28125 33.59375 26.515625 31.984375 
L 29.59375 31.296875 
Q 39.15625 29.25 43.1875 25.515625 
Q 47.21875 21.78125 47.21875 15.09375 
Q 47.21875 7.46875 41.1875 3.015625 
Q 35.15625 -1.421875 24.609375 -1.421875 
Q 20.21875 -1.421875 15.453125 -0.5625 
Q 10.6875 0.296875 5.421875 2 
L 5.421875 11.28125 
Q 10.40625 8.6875 15.234375 7.390625 
Q 20.0625 6.109375 24.8125 6.109375 
Q 31.15625 6.109375 34.5625 8.28125 
Q 37.984375 10.453125 37.984375 14.40625 
Q 37.984375 18.0625 35.515625 20.015625 
Q 33.0625 21.96875 24.703125 23.78125 
L 21.578125 24.515625 
Q 13.234375 26.265625 9.515625 29.90625 
Q 5.8125 33.546875 5.8125 39.890625 
Q 5.8125 47.609375 11.28125 51.796875 
Q 16.75 56 26.8125 56 
Q 31.78125 56 36.171875 55.265625 
Q 40.578125 54.546875 44.28125 53.078125 
z
" id="DejaVuSans-115"/>
     <path d="M 2.984375 54.6875 
L 12.5 54.6875 
L 29.59375 8.796875 
L 46.6875 54.6875 
L 56.203125 54.6875 
L 35.6875 0 
L 23.484375 0 
z
" id="DejaVuSans-118"/>
    </defs>
    <g transform="translate(398.14125 37.2)scale(0.12 -0.12)">
     <use xlink:href="#DejaVuSans-70"/>
     <use x="50.269531" xlink:href="#DejaVuSans-105"/>
     <use x="78.052734" xlink:href="#DejaVuSans-114"/>
     <use x="119.166016" xlink:href="#DejaVuSans-115"/>
     <use x="171.265625" xlink:href="#DejaVuSans-116"/>
     <use x="210.474609" xlink:href="#DejaVuSans-32"/>
     <use x="242.261719" xlink:href="#DejaVuSans-100"/>
     <use x="305.738281" xlink:href="#DejaVuSans-101"/>
     <use x="367.261719" xlink:href="#DejaVuSans-114"/>
     <use x="408.375" xlink:href="#DejaVuSans-105"/>
     <use x="436.158203" xlink:href="#DejaVuSans-118"/>
     <use x="495.337891" xlink:href="#DejaVuSans-97"/>
     <use x="556.617188" xlink:href="#DejaVuSans-116"/>
     <use x="595.826172" xlink:href="#DejaVuSans-105"/>
     <use x="623.609375" xlink:href="#DejaVuSans-118"/>
     <use x="682.789062" xlink:href="#DejaVuSans-101"/>
    </g>
   </g>
   <g id="legend_2">
    <g id="patch_13">
     <path d="M 397.878401 80.55625 
L 534.270588 80.55625 
Q 536.270588 80.55625 536.270588 78.55625 
L 536.270588 50.2 
Q 536.270588 48.2 534.270588 48.2 
L 397.878401 48.2 
Q 395.878401 48.2 395.878401 50.2 
L 395.878401 78.55625 
Q 395.878401 80.55625 397.878401 80.55625 
z
" style="fill:#ffffff;opacity:0.8;stroke:#cccccc;stroke-linejoin:miter;"/>
    </g>
    <g id="line2d_62"/>
    <g id="line2d_63">
     <g>
      <use style="fill:#008000;stroke:#008000;" x="409.878401" xlink:href="#m214c6cf255" y="56.298437"/>
     </g>
    </g>
    <g id="text_32">
     <!-- Analytical derivative -->
     <defs>
      <path d="M 34.1875 63.1875 
L 20.796875 26.90625 
L 47.609375 26.90625 
z
M 28.609375 72.90625 
L 39.796875 72.90625 
L 67.578125 0 
L 57.328125 0 
L 50.6875 18.703125 
L 17.828125 18.703125 
L 11.1875 0 
L 0.78125 0 
z
" id="DejaVuSans-65"/>
     </defs>
     <g transform="translate(427.878401 59.798437)scale(0.1 -0.1)">
      <use xlink:href="#DejaVuSans-65"/>
      <use x="68.408203" xlink:href="#DejaVuSans-110"/>
      <use x="131.787109" xlink:href="#DejaVuSans-97"/>
      <use x="193.066406" xlink:href="#DejaVuSans-108"/>
      <use x="220.849609" xlink:href="#DejaVuSans-121"/>
      <use x="280.029297" xlink:href="#DejaVuSans-116"/>
      <use x="319.238281" xlink:href="#DejaVuSans-105"/>
      <use x="347.021484" xlink:href="#DejaVuSans-99"/>
      <use x="402.001953" xlink:href="#DejaVuSans-97"/>
      <use x="463.28125" xlink:href="#DejaVuSans-108"/>
      <use x="491.064453" xlink:href="#DejaVuSans-32"/>
      <use x="522.851562" xlink:href="#DejaVuSans-100"/>
      <use x="586.328125" xlink:href="#DejaVuSans-101"/>
      <use x="647.851562" xlink:href="#DejaVuSans-114"/>
      <use x="688.964844" xlink:href="#DejaVuSans-105"/>
      <use x="716.748047" xlink:href="#DejaVuSans-118"/>
      <use x="775.927734" xlink:href="#DejaVuSans-97"/>
      <use x="837.207031" xlink:href="#DejaVuSans-116"/>
      <use x="876.416016" xlink:href="#DejaVuSans-105"/>
      <use x="904.199219" xlink:href="#DejaVuSans-118"/>
      <use x="963.378906" xlink:href="#DejaVuSans-101"/>
     </g>
    </g>
    <g id="line2d_64"/>
    <g id="line2d_65">
     <g>
      <use style="fill:#ff0000;stroke:#ff0000;" x="409.878401" xlink:href="#maa3316c365" y="70.976562"/>
     </g>
    </g>
    <g id="text_33">
     <!-- Numerical derivative -->
     <g transform="translate(427.878401 74.476562)scale(0.1 -0.1)">
      <use xlink:href="#DejaVuSans-78"/>
      <use x="74.804688" xlink:href="#DejaVuSans-117"/>
      <use x="138.183594" xlink:href="#DejaVuSans-109"/>
      <use x="235.595703" xlink:href="#DejaVuSans-101"/>
      <use x="297.119141" xlink:href="#DejaVuSans-114"/>
      <use x="338.232422" xlink:href="#DejaVuSans-105"/>
      <use x="366.015625" xlink:href="#DejaVuSans-99"/>
      <use x="420.996094" xlink:href="#DejaVuSans-97"/>
      <use x="482.275391" xlink:href="#DejaVuSans-108"/>
      <use x="510.058594" xlink:href="#DejaVuSans-32"/>
      <use x="541.845703" xlink:href="#DejaVuSans-100"/>
      <use x="605.322266" xlink:href="#DejaVuSans-101"/>
      <use x="666.845703" xlink:href="#DejaVuSans-114"/>
      <use x="707.958984" xlink:href="#DejaVuSans-105"/>
      <use x="735.742188" xlink:href="#DejaVuSans-118"/>
      <use x="794.921875" xlink:href="#DejaVuSans-97"/>
      <use x="856.201172" xlink:href="#DejaVuSans-116"/>
      <use x="895.410156" xlink:href="#DejaVuSans-105"/>
      <use x="923.193359" xlink:href="#DejaVuSans-118"/>
      <use x="982.373047" xlink:href="#DejaVuSans-101"/>
     </g>
    </g>
   </g>
  </g>
  <g id="axes_3">
   <g id="patch_14">
    <path d="M 580.658824 320.4 
L 777.6 320.4 
L 777.6 43.2 
L 580.658824 43.2 
z
" style="fill:#ffffff;"/>
   </g>
   <g id="matplotlib.axis_5">
    <g id="xtick_11">
     <g id="line2d_66">
      <path clip-path="url(#pfe92edb3eb)" d="M 600.352941 320.4 
L 600.352941 43.2 
" style="fill:none;stroke:#b0b0b0;stroke-linecap:square;stroke-width:0.8;"/>
     </g>
     <g id="line2d_67">
      <g>
       <use style="stroke:#000000;stroke-width:0.8;" x="600.352941" xlink:href="#me3bfcf2c25" y="320.4"/>
      </g>
     </g>
     <g id="text_34">
      <!-- −4 -->
      <g transform="translate(592.981847 334.998438)scale(0.1 -0.1)">
       <use xlink:href="#DejaVuSans-8722"/>
       <use x="83.789062" xlink:href="#DejaVuSans-52"/>
      </g>
     </g>
    </g>
    <g id="xtick_12">
     <g id="line2d_68">
      <path clip-path="url(#pfe92edb3eb)" d="M 639.741176 320.4 
L 639.741176 43.2 
" style="fill:none;stroke:#b0b0b0;stroke-linecap:square;stroke-width:0.8;"/>
     </g>
     <g id="line2d_69">
      <g>
       <use style="stroke:#000000;stroke-width:0.8;" x="639.741176" xlink:href="#me3bfcf2c25" y="320.4"/>
      </g>
     </g>
     <g id="text_35">
      <!-- −2 -->
      <g transform="translate(632.370083 334.998438)scale(0.1 -0.1)">
       <use xlink:href="#DejaVuSans-8722"/>
       <use x="83.789062" xlink:href="#DejaVuSans-50"/>
      </g>
     </g>
    </g>
    <g id="xtick_13">
     <g id="line2d_70">
      <path clip-path="url(#pfe92edb3eb)" d="M 679.129412 320.4 
L 679.129412 43.2 
" style="fill:none;stroke:#b0b0b0;stroke-linecap:square;stroke-width:0.8;"/>
     </g>
     <g id="line2d_71">
      <g>
       <use style="stroke:#000000;stroke-width:0.8;" x="679.129412" xlink:href="#me3bfcf2c25" y="320.4"/>
      </g>
     </g>
     <g id="text_36">
      <!-- 0 -->
      <g transform="translate(675.948162 334.998438)scale(0.1 -0.1)">
       <use xlink:href="#DejaVuSans-48"/>
      </g>
     </g>
    </g>
    <g id="xtick_14">
     <g id="line2d_72">
      <path clip-path="url(#pfe92edb3eb)" d="M 718.517647 320.4 
L 718.517647 43.2 
" style="fill:none;stroke:#b0b0b0;stroke-linecap:square;stroke-width:0.8;"/>
     </g>
     <g id="line2d_73">
      <g>
       <use style="stroke:#000000;stroke-width:0.8;" x="718.517647" xlink:href="#me3bfcf2c25" y="320.4"/>
      </g>
     </g>
     <g id="text_37">
      <!-- 2 -->
      <g transform="translate(715.336397 334.998438)scale(0.1 -0.1)">
       <use xlink:href="#DejaVuSans-50"/>
      </g>
     </g>
    </g>
    <g id="xtick_15">
     <g id="line2d_74">
      <path clip-path="url(#pfe92edb3eb)" d="M 757.905882 320.4 
L 757.905882 43.2 
" style="fill:none;stroke:#b0b0b0;stroke-linecap:square;stroke-width:0.8;"/>
     </g>
     <g id="line2d_75">
      <g>
       <use style="stroke:#000000;stroke-width:0.8;" x="757.905882" xlink:href="#me3bfcf2c25" y="320.4"/>
      </g>
     </g>
     <g id="text_38">
      <!-- 4 -->
      <g transform="translate(754.724632 334.998438)scale(0.1 -0.1)">
       <use xlink:href="#DejaVuSans-52"/>
      </g>
     </g>
    </g>
   </g>
   <g id="matplotlib.axis_6">
    <g id="ytick_17">
     <g id="line2d_76">
      <path clip-path="url(#pfe92edb3eb)" d="M 580.658824 298.705263 
L 777.6 298.705263 
" style="fill:none;stroke:#b0b0b0;stroke-linecap:square;stroke-width:0.8;"/>
     </g>
     <g id="line2d_77">
      <g>
       <use style="stroke:#000000;stroke-width:0.8;" x="580.658824" xlink:href="#mc9d184c6ba" y="298.705263"/>
      </g>
     </g>
     <g id="text_39">
      <!-- −200 -->
      <g transform="translate(546.191636 302.504482)scale(0.1 -0.1)">
       <use xlink:href="#DejaVuSans-8722"/>
       <use x="83.789062" xlink:href="#DejaVuSans-50"/>
       <use x="147.412109" xlink:href="#DejaVuSans-48"/>
       <use x="211.035156" xlink:href="#DejaVuSans-48"/>
      </g>
     </g>
    </g>
    <g id="ytick_18">
     <g id="line2d_78">
      <path clip-path="url(#pfe92edb3eb)" d="M 580.658824 251.336842 
L 777.6 251.336842 
" style="fill:none;stroke:#b0b0b0;stroke-linecap:square;stroke-width:0.8;"/>
     </g>
     <g id="line2d_79">
      <g>
       <use style="stroke:#000000;stroke-width:0.8;" x="580.658824" xlink:href="#mc9d184c6ba" y="251.336842"/>
      </g>
     </g>
     <g id="text_40">
      <!-- 0 -->
      <g transform="translate(567.296324 255.136061)scale(0.1 -0.1)">
       <use xlink:href="#DejaVuSans-48"/>
      </g>
     </g>
    </g>
    <g id="ytick_19">
     <g id="line2d_80">
      <path clip-path="url(#pfe92edb3eb)" d="M 580.658824 203.968421 
L 777.6 203.968421 
" style="fill:none;stroke:#b0b0b0;stroke-linecap:square;stroke-width:0.8;"/>
     </g>
     <g id="line2d_81">
      <g>
       <use style="stroke:#000000;stroke-width:0.8;" x="580.658824" xlink:href="#mc9d184c6ba" y="203.968421"/>
      </g>
     </g>
     <g id="text_41">
      <!-- 200 -->
      <g transform="translate(554.571324 207.76764)scale(0.1 -0.1)">
       <use xlink:href="#DejaVuSans-50"/>
       <use x="63.623047" xlink:href="#DejaVuSans-48"/>
       <use x="127.246094" xlink:href="#DejaVuSans-48"/>
      </g>
     </g>
    </g>
    <g id="ytick_20">
     <g id="line2d_82">
      <path clip-path="url(#pfe92edb3eb)" d="M 580.658824 156.6 
L 777.6 156.6 
" style="fill:none;stroke:#b0b0b0;stroke-linecap:square;stroke-width:0.8;"/>
     </g>
     <g id="line2d_83">
      <g>
       <use style="stroke:#000000;stroke-width:0.8;" x="580.658824" xlink:href="#mc9d184c6ba" y="156.6"/>
      </g>
     </g>
     <g id="text_42">
      <!-- 400 -->
      <g transform="translate(554.571324 160.399219)scale(0.1 -0.1)">
       <use xlink:href="#DejaVuSans-52"/>
       <use x="63.623047" xlink:href="#DejaVuSans-48"/>
       <use x="127.246094" xlink:href="#DejaVuSans-48"/>
      </g>
     </g>
    </g>
    <g id="ytick_21">
     <g id="line2d_84">
      <path clip-path="url(#pfe92edb3eb)" d="M 580.658824 109.231579 
L 777.6 109.231579 
" style="fill:none;stroke:#b0b0b0;stroke-linecap:square;stroke-width:0.8;"/>
     </g>
     <g id="line2d_85">
      <g>
       <use style="stroke:#000000;stroke-width:0.8;" x="580.658824" xlink:href="#mc9d184c6ba" y="109.231579"/>
      </g>
     </g>
     <g id="text_43">
      <!-- 600 -->
      <defs>
       <path d="M 33.015625 40.375 
Q 26.375 40.375 22.484375 35.828125 
Q 18.609375 31.296875 18.609375 23.390625 
Q 18.609375 15.53125 22.484375 10.953125 
Q 26.375 6.390625 33.015625 6.390625 
Q 39.65625 6.390625 43.53125 10.953125 
Q 47.40625 15.53125 47.40625 23.390625 
Q 47.40625 31.296875 43.53125 35.828125 
Q 39.65625 40.375 33.015625 40.375 
z
M 52.59375 71.296875 
L 52.59375 62.3125 
Q 48.875 64.0625 45.09375 64.984375 
Q 41.3125 65.921875 37.59375 65.921875 
Q 27.828125 65.921875 22.671875 59.328125 
Q 17.53125 52.734375 16.796875 39.40625 
Q 19.671875 43.65625 24.015625 45.921875 
Q 28.375 48.1875 33.59375 48.1875 
Q 44.578125 48.1875 50.953125 41.515625 
Q 57.328125 34.859375 57.328125 23.390625 
Q 57.328125 12.15625 50.6875 5.359375 
Q 44.046875 -1.421875 33.015625 -1.421875 
Q 20.359375 -1.421875 13.671875 8.265625 
Q 6.984375 17.96875 6.984375 36.375 
Q 6.984375 53.65625 15.1875 63.9375 
Q 23.390625 74.21875 37.203125 74.21875 
Q 40.921875 74.21875 44.703125 73.484375 
Q 48.484375 72.75 52.59375 71.296875 
z
" id="DejaVuSans-54"/>
      </defs>
      <g transform="translate(554.571324 113.030798)scale(0.1 -0.1)">
       <use xlink:href="#DejaVuSans-54"/>
       <use x="63.623047" xlink:href="#DejaVuSans-48"/>
       <use x="127.246094" xlink:href="#DejaVuSans-48"/>
      </g>
     </g>
    </g>
    <g id="ytick_22">
     <g id="line2d_86">
      <path clip-path="url(#pfe92edb3eb)" d="M 580.658824 61.863158 
L 777.6 61.863158 
" style="fill:none;stroke:#b0b0b0;stroke-linecap:square;stroke-width:0.8;"/>
     </g>
     <g id="line2d_87">
      <g>
       <use style="stroke:#000000;stroke-width:0.8;" x="580.658824" xlink:href="#mc9d184c6ba" y="61.863158"/>
      </g>
     </g>
     <g id="text_44">
      <!-- 800 -->
      <defs>
       <path d="M 31.78125 34.625 
Q 24.75 34.625 20.71875 30.859375 
Q 16.703125 27.09375 16.703125 20.515625 
Q 16.703125 13.921875 20.71875 10.15625 
Q 24.75 6.390625 31.78125 6.390625 
Q 38.8125 6.390625 42.859375 10.171875 
Q 46.921875 13.96875 46.921875 20.515625 
Q 46.921875 27.09375 42.890625 30.859375 
Q 38.875 34.625 31.78125 34.625 
z
M 21.921875 38.8125 
Q 15.578125 40.375 12.03125 44.71875 
Q 8.5 49.078125 8.5 55.328125 
Q 8.5 64.0625 14.71875 69.140625 
Q 20.953125 74.21875 31.78125 74.21875 
Q 42.671875 74.21875 48.875 69.140625 
Q 55.078125 64.0625 55.078125 55.328125 
Q 55.078125 49.078125 51.53125 44.71875 
Q 48 40.375 41.703125 38.8125 
Q 48.828125 37.15625 52.796875 32.3125 
Q 56.78125 27.484375 56.78125 20.515625 
Q 56.78125 9.90625 50.3125 4.234375 
Q 43.84375 -1.421875 31.78125 -1.421875 
Q 19.734375 -1.421875 13.25 4.234375 
Q 6.78125 9.90625 6.78125 20.515625 
Q 6.78125 27.484375 10.78125 32.3125 
Q 14.796875 37.15625 21.921875 38.8125 
z
M 18.3125 54.390625 
Q 18.3125 48.734375 21.84375 45.5625 
Q 25.390625 42.390625 31.78125 42.390625 
Q 38.140625 42.390625 41.71875 45.5625 
Q 45.3125 48.734375 45.3125 54.390625 
Q 45.3125 60.0625 41.71875 63.234375 
Q 38.140625 66.40625 31.78125 66.40625 
Q 25.390625 66.40625 21.84375 63.234375 
Q 18.3125 60.0625 18.3125 54.390625 
z
" id="DejaVuSans-56"/>
      </defs>
      <g transform="translate(554.571324 65.662377)scale(0.1 -0.1)">
       <use xlink:href="#DejaVuSans-56"/>
       <use x="63.623047" xlink:href="#DejaVuSans-48"/>
       <use x="127.246094" xlink:href="#DejaVuSans-48"/>
      </g>
     </g>
    </g>
   </g>
   <g id="line2d_88">
    <path clip-path="url(#pfe92edb3eb)" d="M 580.658824 307.8 
L 582.628235 299.465053 
L 584.597647 291.618947 
L 586.567059 284.250316 
L 588.536471 277.347789 
L 590.505882 270.9 
L 592.475294 264.895579 
L 594.444706 259.323158 
L 596.414118 254.171368 
L 598.383529 249.428842 
L 600.352941 245.084211 
L 602.322353 241.126105 
L 604.291765 237.543158 
L 606.261176 234.324 
L 608.230588 231.457263 
L 610.2 228.931579 
L 612.169412 226.735579 
L 614.138824 224.857895 
L 616.108235 223.287158 
L 618.077647 222.012 
L 620.047059 221.021053 
L 622.016471 220.302947 
L 623.985882 219.846316 
L 625.955294 219.639789 
L 627.924706 219.672 
L 629.894118 219.931579 
L 631.863529 220.407158 
L 633.832941 221.087368 
L 635.802353 221.960842 
L 637.771765 223.016211 
L 639.741176 224.242105 
L 641.710588 225.627158 
L 643.68 227.16 
L 645.649412 228.829263 
L 647.618824 230.623579 
L 649.588235 232.531579 
L 651.557647 234.541895 
L 653.527059 236.643158 
L 655.496471 238.824 
L 657.465882 241.073053 
L 659.435294 243.378947 
L 661.404706 245.730316 
L 663.374118 248.115789 
L 665.343529 250.524 
L 667.312941 252.943579 
L 669.282353 255.363158 
L 671.251765 257.771368 
L 673.221176 260.156842 
L 675.190588 262.508211 
L 677.16 264.814105 
L 679.129412 267.063158 
L 681.098824 269.244 
L 683.068235 271.345263 
L 685.037647 273.355579 
L 687.007059 275.263579 
L 688.976471 277.057895 
L 690.945882 278.727158 
L 692.915294 280.26 
L 694.884706 281.645053 
L 696.854118 282.870947 
L 698.823529 283.926316 
L 700.792941 284.799789 
L 702.762353 285.48 
L 704.731765 285.955579 
L 706.701176 286.215158 
L 708.670588 286.247368 
L 710.64 286.040842 
L 712.609412 285.584211 
L 714.578824 284.866105 
L 716.548235 283.875158 
L 718.517647 282.6 
L 720.487059 281.029263 
L 722.456471 279.151579 
L 724.425882 276.955579 
L 726.395294 274.429895 
L 728.364706 271.563158 
L 730.334118 268.344 
L 732.303529 264.761053 
L 734.272941 260.802947 
L 736.242353 256.458316 
L 738.211765 251.715789 
L 740.181176 246.564 
L 742.150588 240.991579 
L 744.12 234.987158 
L 746.089412 228.539368 
L 748.058824 221.636842 
L 750.028235 214.268211 
L 751.997647 206.422105 
L 753.967059 198.087158 
L 755.936471 189.252 
L 757.905882 179.905263 
L 759.875294 170.035579 
L 761.844706 159.631579 
L 763.814118 148.681895 
L 765.783529 137.175158 
L 767.752941 125.1 
L 769.722353 112.445053 
L 771.691765 99.198947 
L 773.661176 85.350316 
L 775.630588 70.887789 
L 777.6 55.8 
" style="fill:none;stroke:#008000;stroke-dasharray:1.5,2.475;stroke-dashoffset:0;stroke-width:1.5;"/>
   </g>
   <g id="line2d_89">
    <g clip-path="url(#pfe92edb3eb)">
     <use style="fill:#008000;stroke:#008000;" x="600.352941" xlink:href="#m214c6cf255" y="245.084211"/>
     <use style="fill:#008000;stroke:#008000;" x="620.047059" xlink:href="#m214c6cf255" y="221.021053"/>
     <use style="fill:#008000;stroke:#008000;" x="639.741176" xlink:href="#m214c6cf255" y="224.242105"/>
     <use style="fill:#008000;stroke:#008000;" x="659.435294" xlink:href="#m214c6cf255" y="243.378947"/>
     <use style="fill:#008000;stroke:#008000;" x="679.129412" xlink:href="#m214c6cf255" y="267.063158"/>
     <use style="fill:#008000;stroke:#008000;" x="698.823529" xlink:href="#m214c6cf255" y="283.926316"/>
     <use style="fill:#008000;stroke:#008000;" x="718.517647" xlink:href="#m214c6cf255" y="282.6"/>
     <use style="fill:#008000;stroke:#008000;" x="738.211765" xlink:href="#m214c6cf255" y="251.715789"/>
     <use style="fill:#008000;stroke:#008000;" x="757.905882" xlink:href="#m214c6cf255" y="179.905263"/>
    </g>
   </g>
   <g id="line2d_90">
    <g clip-path="url(#pfe92edb3eb)">
     <use style="fill:#ff0000;stroke:#ff0000;" x="600.352941" xlink:href="#maa3316c365" y="248.305263"/>
     <use style="fill:#ff0000;stroke:#ff0000;" x="620.047059" xlink:href="#maa3316c365" y="223.294737"/>
     <use style="fill:#ff0000;stroke:#ff0000;" x="639.741176" xlink:href="#maa3316c365" y="225.568421"/>
     <use style="fill:#ff0000;stroke:#ff0000;" x="659.435294" xlink:href="#maa3316c365" y="243.757895"/>
     <use style="fill:#ff0000;stroke:#ff0000;" x="679.129412" xlink:href="#maa3316c365" y="266.494737"/>
     <use style="fill:#ff0000;stroke:#ff0000;" x="698.823529" xlink:href="#maa3316c365" y="282.410526"/>
     <use style="fill:#ff0000;stroke:#ff0000;" x="718.517647" xlink:href="#maa3316c365" y="280.136842"/>
     <use style="fill:#ff0000;stroke:#ff0000;" x="738.211765" xlink:href="#maa3316c365" y="248.305263"/>
     <use style="fill:#ff0000;stroke:#ff0000;" x="757.905882" xlink:href="#maa3316c365" y="175.547368"/>
    </g>
   </g>
   <g id="patch_15">
    <path d="M 580.658824 320.4 
L 580.658824 43.2 
" style="fill:none;stroke:#000000;stroke-linecap:square;stroke-linejoin:miter;stroke-width:0.8;"/>
   </g>
   <g id="patch_16">
    <path d="M 777.6 320.4 
L 777.6 43.2 
" style="fill:none;stroke:#000000;stroke-linecap:square;stroke-linejoin:miter;stroke-width:0.8;"/>
   </g>
   <g id="patch_17">
    <path d="M 580.658824 320.4 
L 777.6 320.4 
" style="fill:none;stroke:#000000;stroke-linecap:square;stroke-linejoin:miter;stroke-width:0.8;"/>
   </g>
   <g id="patch_18">
    <path d="M 580.658824 43.2 
L 777.6 43.2 
" style="fill:none;stroke:#000000;stroke-linecap:square;stroke-linejoin:miter;stroke-width:0.8;"/>
   </g>
   <g id="text_45">
    <!-- Second derivative -->
    <g transform="translate(625.015037 37.2)scale(0.12 -0.12)">
     <use xlink:href="#DejaVuSans-83"/>
     <use x="63.476562" xlink:href="#DejaVuSans-101"/>
     <use x="125" xlink:href="#DejaVuSans-99"/>
     <use x="179.980469" xlink:href="#DejaVuSans-111"/>
     <use x="241.162109" xlink:href="#DejaVuSans-110"/>
     <use x="304.541016" xlink:href="#DejaVuSans-100"/>
     <use x="368.017578" xlink:href="#DejaVuSans-32"/>
     <use x="399.804688" xlink:href="#DejaVuSans-100"/>
     <use x="463.28125" xlink:href="#DejaVuSans-101"/>
     <use x="524.804688" xlink:href="#DejaVuSans-114"/>
     <use x="565.917969" xlink:href="#DejaVuSans-105"/>
     <use x="593.701172" xlink:href="#DejaVuSans-118"/>
     <use x="652.880859" xlink:href="#DejaVuSans-97"/>
     <use x="714.160156" xlink:href="#DejaVuSans-116"/>
     <use x="753.369141" xlink:href="#DejaVuSans-105"/>
     <use x="781.152344" xlink:href="#DejaVuSans-118"/>
     <use x="840.332031" xlink:href="#DejaVuSans-101"/>
    </g>
   </g>
   <g id="legend_3">
    <g id="patch_19">
     <path d="M 634.207813 80.55625 
L 770.6 80.55625 
Q 772.6 80.55625 772.6 78.55625 
L 772.6 50.2 
Q 772.6 48.2 770.6 48.2 
L 634.207813 48.2 
Q 632.207813 48.2 632.207813 50.2 
L 632.207813 78.55625 
Q 632.207813 80.55625 634.207813 80.55625 
z
" style="fill:#ffffff;opacity:0.8;stroke:#cccccc;stroke-linejoin:miter;"/>
    </g>
    <g id="line2d_91"/>
    <g id="line2d_92">
     <g>
      <use style="fill:#008000;stroke:#008000;" x="646.207813" xlink:href="#m214c6cf255" y="56.298437"/>
     </g>
    </g>
    <g id="text_46">
     <!-- Analytical derivative -->
     <g transform="translate(664.207813 59.798437)scale(0.1 -0.1)">
      <use xlink:href="#DejaVuSans-65"/>
      <use x="68.408203" xlink:href="#DejaVuSans-110"/>
      <use x="131.787109" xlink:href="#DejaVuSans-97"/>
      <use x="193.066406" xlink:href="#DejaVuSans-108"/>
      <use x="220.849609" xlink:href="#DejaVuSans-121"/>
      <use x="280.029297" xlink:href="#DejaVuSans-116"/>
      <use x="319.238281" xlink:href="#DejaVuSans-105"/>
      <use x="347.021484" xlink:href="#DejaVuSans-99"/>
      <use x="402.001953" xlink:href="#DejaVuSans-97"/>
      <use x="463.28125" xlink:href="#DejaVuSans-108"/>
      <use x="491.064453" xlink:href="#DejaVuSans-32"/>
      <use x="522.851562" xlink:href="#DejaVuSans-100"/>
      <use x="586.328125" xlink:href="#DejaVuSans-101"/>
      <use x="647.851562" xlink:href="#DejaVuSans-114"/>
      <use x="688.964844" xlink:href="#DejaVuSans-105"/>
      <use x="716.748047" xlink:href="#DejaVuSans-118"/>
      <use x="775.927734" xlink:href="#DejaVuSans-97"/>
      <use x="837.207031" xlink:href="#DejaVuSans-116"/>
      <use x="876.416016" xlink:href="#DejaVuSans-105"/>
      <use x="904.199219" xlink:href="#DejaVuSans-118"/>
      <use x="963.378906" xlink:href="#DejaVuSans-101"/>
     </g>
    </g>
    <g id="line2d_93"/>
    <g id="line2d_94">
     <g>
      <use style="fill:#ff0000;stroke:#ff0000;" x="646.207813" xlink:href="#maa3316c365" y="70.976562"/>
     </g>
    </g>
    <g id="text_47">
     <!-- Numerical derivative -->
     <g transform="translate(664.207813 74.476562)scale(0.1 -0.1)">
      <use xlink:href="#DejaVuSans-78"/>
      <use x="74.804688" xlink:href="#DejaVuSans-117"/>
      <use x="138.183594" xlink:href="#DejaVuSans-109"/>
      <use x="235.595703" xlink:href="#DejaVuSans-101"/>
      <use x="297.119141" xlink:href="#DejaVuSans-114"/>
      <use x="338.232422" xlink:href="#DejaVuSans-105"/>
      <use x="366.015625" xlink:href="#DejaVuSans-99"/>
      <use x="420.996094" xlink:href="#DejaVuSans-97"/>
      <use x="482.275391" xlink:href="#DejaVuSans-108"/>
      <use x="510.058594" xlink:href="#DejaVuSans-32"/>
      <use x="541.845703" xlink:href="#DejaVuSans-100"/>
      <use x="605.322266" xlink:href="#DejaVuSans-101"/>
      <use x="666.845703" xlink:href="#DejaVuSans-114"/>
      <use x="707.958984" xlink:href="#DejaVuSans-105"/>
      <use x="735.742188" xlink:href="#DejaVuSans-118"/>
      <use x="794.921875" xlink:href="#DejaVuSans-97"/>
      <use x="856.201172" xlink:href="#DejaVuSans-116"/>
      <use x="895.410156" xlink:href="#DejaVuSans-105"/>
      <use x="923.193359" xlink:href="#DejaVuSans-118"/>
      <use x="982.373047" xlink:href="#DejaVuSans-101"/>
     </g>
    </g>
   </g>
  </g>
 </g>
 <defs>
  <clipPath id="p29a03e24b3">
   <rect height="277.2" width="196.941176" x="108" y="43.2"/>
  </clipPath>
  <clipPath id="p593d378768">
   <rect height="277.2" width="196.941176" x="344.329412" y="43.2"/>
  </clipPath>
  <clipPath id="pfe92edb3eb">
   <rect height="277.2" width="196.941176" x="580.658824" y="43.2"/>
  </clipPath>
 </defs>
</svg>
